<svg xmlns="http://www.w3.org/2000/svg" xmlns:xlink="http://www.w3.org/1999/xlink" viewBox="0 0 147 47"><defs><linearGradient id="linear-gradient" x1="17.54618" y1="4.766" x2="31.95275" y2="42.90334" gradientUnits="userSpaceOnUse"><stop offset="0" stop-color="#24533e"/><stop offset="0.02844" stop-color="#3c6654"/><stop offset="0.09438" stop-color="#708e81"/><stop offset="0.16156" stop-color="#9cb1a7"/><stop offset="0.22879" stop-color="#bfcdc7"/><stop offset="0.29612" stop-color="#dbe3e0"/><stop offset="0.36359" stop-color="#eff3f1"/><stop offset="0.43138" stop-color="#fbfcfc"/><stop offset="0.5" stop-color="#fff"/><stop offset="0.55834" stop-color="#edf1ef"/><stop offset="0.67536" stop-color="#beccc6"/><stop offset="0.83837" stop-color="#749285"/><stop offset="1" stop-color="#24533e"/></linearGradient><linearGradient id="linear-gradient-2" x1="10.51578" y1="18.19948" x2="15.84894" y2="7.72533" gradientUnits="userSpaceOnUse"><stop offset="0" stop-color="#e83d7b" stop-opacity="0"/><stop offset="1" stop-color="#8f1351"/></linearGradient></defs><g style="isolation:isolate"><g id="Layer_1" data-name="Layer 1"><path d="M15.77685,26.70526v0l-.00021-.00058,0-.00016q-.08328-.23091-.15431-.46739l-.00012-.00029c-.00893-.02942-.017-.05921-.0252-.08892-.0379-.12984-.07359-.26047-.106-.39253l0-.00012c-.00844-.03434-.016-.069-.02389-.10354q-.06036-.259-.10645-.52308c-.00443-.02508-.00922-.05-.01344-.07519V25.0533c-.01684-.1015-.03135-.20369-.04491-.30625l0-.00036-.012-.09441q-.02711-.22267-.04367-.44838l0-.00058c-.00446-.0601-.0104-.11976-.01372-.1802v-.00021c-.0093-.16947-.01467-.34-.01492-.51176v-.00021l-.00028-.011v-.00164c0-.24982.01266-.49661.03171-.74155v-.00025c.00275-.035.005-.07011.008-.105a9.3968,9.3968,0,0,1,1.97341-4.97891,24.38007,24.38007,0,0,0-.97421-4.93757c-1.88457-5.3145-5.69932-5.228-8.27264-2.35246A21.20532,21.20532,0,0,0,9.10233,37.92534c.579.47649,2.12641,1.34736,4.57368-.13415,3.15785-1.91551,3.42861-6.92183,2.52365-10.09865A9.37522,9.37522,0,0,1,15.77685,26.70526Z" fill="#24533e"/><path d="M33.4692,20.2947l0,.00008.00016.00053.00008.00021q.08328.23091.15431.46735l.00013.00029c.00893.02946.017.05921.02519.089.03791.1298.07359.26047.106.39249l0,.00012c.00839.03438.016.069.02388.10358q.06036.25894.10646.52308c.00442.025.00921.05.01339.07515l0,.00016c.0168.1015.03135.20369.04491.30625l0,.00032.012.09441q.02716.22267.04372.44842l0,.00053c.00446.06015.01041.11977.01373.18021v.0002c.0093.16952.01466.34.01491.51177v.00025L34.0285,23.5v.00168c0,.24982-.01267.49661-.03172.74155v.00025c-.00274.035-.005.07007-.008.105a9.39679,9.39679,0,0,1-1.9734,4.97887,24.37611,24.37611,0,0,0,.9742,4.93757c1.88458,5.3145,5.69933,5.228,8.27264,2.3525A21.20544,21.20544,0,0,0,40.14375,9.07466c-.579-.47649-2.12644-1.3474-4.57368.13411-3.15785,1.91555-3.42861,6.92187-2.52365,10.09865A9.38432,9.38432,0,0,1,33.4692,20.2947Z" fill="#24533e"/><path d="M45.80628,23.50168a21.145,21.145,0,0,0-5.66253-14.427c-.579-.47649-2.12644-1.3474-4.57368.13411a5.93176,5.93176,0,0,0-2.46829,3.34276A5.75437,5.75437,0,0,1,35.426,9.60515c2.44723-1.48151,3.99463-.6106,4.57363-.13411a21.2187,21.2187,0,0,1,4.49415,21.37459A21.13094,21.13094,0,0,0,45.80628,23.50168ZM32.03649,29.49729a9.41354,9.41354,0,0,0,1.30618-2.4635,9.43882,9.43882,0,0,1-1.32728,2.29358C32.02215,29.38506,32.0296,29.44005,32.03649,29.49729Z" fill="#fff" style="mix-blend-mode:screen"/><path d="M41.74757,36.02254c-2.55442,3.43688-6.75093,3.90231-8.758-1.7576a24.41077,24.41077,0,0,1-.97556-4.94867c-.43195-3.67893-.60695-8.31112-.77822-12.50017a72.96088,72.96088,0,0,0-.76708-9.86756,5.94116,5.94116,0,0,0-5.67851-4.6694c-.07449-.00372-.12661-.00372-.1564-.00372h-.02155v.00065A21.185,21.185,0,0,0,7.49851,10.97746c2.55443-3.43688,6.75094-3.90235,8.758,1.75756a24.41124,24.41124,0,0,1,.97556,4.94867c.432,3.67892.60695,8.31111.77823,12.50017a72.95842,72.95842,0,0,0,.76708,9.8676,5.94125,5.94125,0,0,0,5.67851,4.6694c.07445.00372.12661.00372.1564.00372h.02155v-.00065A21.18517,21.18517,0,0,0,41.74757,36.02254Z" fill="url(#linear-gradient)"/><path d="M41.20007,36.6846c-.16664.21921-.33152.43982-.50636.65227.36623-.4256.72193-.86038,1.05386-1.31433A8.39014,8.39014,0,0,1,41.20007,36.6846Zm-.00729.0077c-2.57209,2.8006-6.33537,2.83985-8.20319-2.42736a24.41077,24.41077,0,0,1-.97556-4.94867c-.43195-3.67893-.60695-8.31112-.77822-12.50017a72.96088,72.96088,0,0,0-.76708-9.86756,5.94116,5.94116,0,0,0-5.67851-4.6694c-.07449-.00372-.12661-.00372-.1564-.00372h-.02155v.00065A21.17376,21.17376,0,0,0,8.24618,10.01432,21.16112,21.16112,0,0,1,24.30607,2.62726V2.62661h.02155c.02978,0,.0819,0,.1564.00372a5.94116,5.94116,0,0,1,5.67851,4.6694,72.96,72.96,0,0,1,.76708,9.86756c.17127,4.1891.34627,8.82125.77822,12.50021a24.41193,24.41193,0,0,0,.97556,4.94867C34.6266,40.09608,38.62225,39.83385,41.19278,36.6923ZM7.49851,10.97746q.12189-.16392.2486-.31857l-.0073.0077C7.66044,10.77108,7.576,10.8715,7.49851,10.97746Z" fill="#fff" opacity="0.6" style="mix-blend-mode:screen"/><path d="M15.50945,21.18163a9.40979,9.40979,0,0,1,1.72125-3.509,24.38007,24.38007,0,0,0-.97421-4.93757c-1.88457-5.3145-5.69932-5.228-8.27264-2.35246C7.98385,10.38256,13.7539,5.68309,15.50945,21.18163Z" fill="url(#linear-gradient-2)" style="mix-blend-mode:multiply"/><path d="M59.381,13.00342h7.94922l6.81055,21.44873H67.631l-1.14062-3.98926H59.381L58.2409,34.45215H52.51141Zm1.2002,13.229h4.71l-2.34082-8.249Z" fill="#fff"/><path d="M78.10223,13.00342h6.92969l6.86914,12.08935V13.00342h5.37012V34.45215H91.33172L83.50165,20.9834V34.45215H78.10223Z" fill="#fff"/><path d="M102.9118,13.00342h6.92969l6.86914,12.08935V13.00342h5.37012V34.45215H116.1413L108.31122,20.9834V34.45215H102.9118Z" fill="#fff"/><path d="M131.83075,17.74316h-5.54981V13.00342h17.2793v4.73974h-5.5498v16.709h-6.17969Z" fill="#fff"/></g></g></svg>