<svg width="1443" height="87" viewBox="0 0 1443 87" fill="none" xmlns="http://www.w3.org/2000/svg">
<path d="M23.972 59.84C19.94 59.84 16.4867 58.9627 13.612 57.208C10.7373 55.4347 8.52533 52.9707 6.976 49.816C5.44533 46.6613 4.68 43.0027 4.68 38.84C4.68 34.6773 5.44533 31.0187 6.976 27.864C8.52533 24.7093 10.7373 22.2547 13.612 20.5C16.4867 18.7267 19.94 17.84 23.972 17.84C28.62 17.84 32.4933 19.0067 35.592 21.34C38.6907 23.6547 40.8653 26.7813 42.116 30.72L35.312 32.596C34.528 29.964 33.1933 27.9107 31.308 26.436C29.4227 24.9427 26.9773 24.196 23.972 24.196C21.2653 24.196 19.0067 24.8027 17.196 26.016C15.404 27.2293 14.0507 28.9373 13.136 31.14C12.24 33.324 11.7827 35.8907 11.764 38.84C11.764 41.7893 12.212 44.3653 13.108 46.568C14.0227 48.752 15.3853 50.4507 17.196 51.664C19.0067 52.8773 21.2653 53.484 23.972 53.484C26.9773 53.484 29.4227 52.7373 31.308 51.244C33.1933 49.7507 34.528 47.6973 35.312 45.084L42.116 46.96C40.8653 50.8987 38.6907 54.0347 35.592 56.368C32.4933 58.6827 28.62 59.84 23.972 59.84ZM61.6198 59.84C58.5958 59.84 55.9544 59.1587 53.6958 57.796C51.4371 56.4333 49.6824 54.5573 48.4318 52.168C47.1998 49.76 46.5838 46.9973 46.5838 43.88C46.5838 40.7067 47.2184 37.9253 48.4878 35.536C49.7571 33.1467 51.5211 31.28 53.7798 29.936C56.0384 28.592 58.6518 27.92 61.6198 27.92C64.6624 27.92 67.3131 28.6013 69.5718 29.964C71.8304 31.3267 73.5851 33.212 74.8358 35.62C76.0864 38.0093 76.7118 40.7627 76.7118 43.88C76.7118 47.016 76.0771 49.788 74.8078 52.196C73.5571 54.5853 71.8024 56.4613 69.5438 57.824C67.2851 59.168 64.6438 59.84 61.6198 59.84ZM61.6198 53.512C64.3078 53.512 66.3051 52.616 67.6118 50.824C68.9184 49.032 69.5718 46.7173 69.5718 43.88C69.5718 40.9493 68.9091 38.616 67.5838 36.88C66.2584 35.1253 64.2704 34.248 61.6198 34.248C59.8091 34.248 58.3158 34.6587 57.1398 35.48C55.9824 36.2827 55.1238 37.412 54.5638 38.868C54.0038 40.3053 53.7238 41.976 53.7238 43.88C53.7238 46.8107 54.3864 49.1533 55.7118 50.908C57.0558 52.644 59.0251 53.512 61.6198 53.512ZM119.197 59V40.632C119.197 38.56 118.684 36.9453 117.657 35.788C116.63 34.612 115.24 34.024 113.485 34.024C112.402 34.024 111.432 34.276 110.573 34.78C109.714 35.2653 109.033 35.9933 108.529 36.964C108.025 37.916 107.773 39.0547 107.773 40.38L104.777 38.616C104.758 36.5253 105.225 34.6867 106.177 33.1C107.148 31.4947 108.454 30.244 110.097 29.348C111.74 28.452 113.569 28.004 115.585 28.004C118.926 28.004 121.484 29.012 123.257 31.028C125.049 33.0253 125.945 35.6573 125.945 38.924V59H119.197ZM82.8249 59V28.76H88.7889V38.14H89.6289V59H82.8249ZM101.053 59V40.716C101.053 38.6067 100.54 36.964 99.5129 35.788C98.4863 34.612 97.0863 34.024 95.3129 34.024C93.5956 34.024 92.2143 34.612 91.1689 35.788C90.1423 36.964 89.6289 38.4947 89.6289 40.38L86.6049 38.364C86.6049 36.404 87.0903 34.64 88.0609 33.072C89.0316 31.504 90.3383 30.272 91.9809 29.376C93.6423 28.4613 95.4996 28.004 97.5529 28.004C99.8116 28.004 101.697 28.4893 103.209 29.46C104.74 30.412 105.878 31.7187 106.625 33.38C107.39 35.0227 107.773 36.88 107.773 38.952V59H101.053ZM147.78 59.84C144.831 59.84 142.357 59.14 140.36 57.74C138.363 56.34 136.86 54.436 135.852 52.028C134.844 49.6013 134.34 46.8853 134.34 43.88C134.34 40.8373 134.844 38.112 135.852 35.704C136.86 33.296 138.335 31.4013 140.276 30.02C142.236 28.62 144.653 27.92 147.528 27.92C150.384 27.92 152.857 28.62 154.948 30.02C157.057 31.4013 158.691 33.296 159.848 35.704C161.005 38.0933 161.584 40.8187 161.584 43.88C161.584 46.904 161.015 49.62 159.876 52.028C158.737 54.436 157.132 56.34 155.06 57.74C152.988 59.14 150.561 59.84 147.78 59.84ZM133.192 72.44V28.76H139.156V49.984H139.996V72.44H133.192ZM146.744 53.792C148.499 53.792 149.945 53.3533 151.084 52.476C152.223 51.5987 153.063 50.4133 153.604 48.92C154.164 47.408 154.444 45.728 154.444 43.88C154.444 42.0507 154.164 40.3893 153.604 38.896C153.044 37.384 152.176 36.1893 151 35.312C149.824 34.416 148.331 33.968 146.52 33.968C144.803 33.968 143.403 34.388 142.32 35.228C141.237 36.0493 140.435 37.2067 139.912 38.7C139.408 40.1747 139.156 41.9013 139.156 43.88C139.156 45.84 139.408 47.5667 139.912 49.06C140.435 50.5533 141.247 51.72 142.348 52.56C143.468 53.3813 144.933 53.792 146.744 53.792ZM181.504 59.84C178.443 59.84 175.755 59.1773 173.44 57.852C171.125 56.5267 169.315 54.688 168.008 52.336C166.72 49.984 166.076 47.2773 166.076 44.216C166.076 40.912 166.711 38.0467 167.98 35.62C169.249 33.1747 171.013 31.28 173.272 29.936C175.531 28.592 178.144 27.92 181.112 27.92C184.248 27.92 186.908 28.6573 189.092 30.132C191.295 31.588 192.928 33.6507 193.992 36.32C195.056 38.9893 195.457 42.1347 195.196 45.756H188.504V43.292C188.485 40.0067 187.907 37.608 186.768 36.096C185.629 34.584 183.837 33.828 181.392 33.828C178.629 33.828 176.576 34.6867 175.232 36.404C173.888 38.1027 173.216 40.5947 173.216 43.88C173.216 46.9413 173.888 49.312 175.232 50.992C176.576 52.672 178.536 53.512 181.112 53.512C182.773 53.512 184.201 53.148 185.396 52.42C186.609 51.6733 187.543 50.6 188.196 49.2L194.86 51.216C193.703 53.9413 191.911 56.06 189.484 57.572C187.076 59.084 184.416 59.84 181.504 59.84ZM171.088 45.756V40.66H191.892V45.756H171.088ZM219.167 59C217.17 59.3733 215.21 59.532 213.287 59.476C211.383 59.4387 209.675 59.0933 208.163 58.44C206.651 57.768 205.503 56.7133 204.719 55.276C204.029 53.9693 203.665 52.6347 203.627 51.272C203.59 49.9093 203.571 48.3693 203.571 46.652V20.36H210.291V46.26C210.291 47.4733 210.301 48.5373 210.319 49.452C210.357 50.3667 210.553 51.1133 210.907 51.692C211.579 52.812 212.653 53.4373 214.127 53.568C215.602 53.6987 217.282 53.624 219.167 53.344V59ZM198.083 34.052V28.76H219.167V34.052H198.083ZM226.23 24.168V17.98H232.978V24.168H226.23ZM226.23 59V28.76H232.978V59H226.23ZM259.089 59C257.092 59.3733 255.132 59.532 253.209 59.476C251.305 59.4387 249.597 59.0933 248.085 58.44C246.573 57.768 245.425 56.7133 244.641 55.276C243.951 53.9693 243.587 52.6347 243.549 51.272C243.512 49.9093 243.493 48.3693 243.493 46.652V20.36H250.213V46.26C250.213 47.4733 250.223 48.5373 250.241 49.452C250.279 50.3667 250.475 51.1133 250.829 51.692C251.501 52.812 252.575 53.4373 254.049 53.568C255.524 53.6987 257.204 53.624 259.089 53.344V59ZM238.005 34.052V28.76H259.089V34.052H238.005ZM266.152 24.168V17.98H272.9V24.168H266.152ZM266.152 59V28.76H272.9V59H266.152ZM289.463 59L278.487 28.76H285.235L292.851 50.684L300.439 28.76H307.215L296.239 59H289.463ZM324.895 59.84C321.833 59.84 319.145 59.1773 316.831 57.852C314.516 56.5267 312.705 54.688 311.399 52.336C310.111 49.984 309.467 47.2773 309.467 44.216C309.467 40.912 310.101 38.0467 311.371 35.62C312.64 33.1747 314.404 31.28 316.663 29.936C318.921 28.592 321.535 27.92 324.503 27.92C327.639 27.92 330.299 28.6573 332.483 30.132C334.685 31.588 336.319 33.6507 337.383 36.32C338.447 38.9893 338.848 42.1347 338.587 45.756H331.895V43.292C331.876 40.0067 331.297 37.608 330.159 36.096C329.02 34.584 327.228 33.828 324.783 33.828C322.02 33.828 319.967 34.6867 318.623 36.404C317.279 38.1027 316.607 40.5947 316.607 43.88C316.607 46.9413 317.279 49.312 318.623 50.992C319.967 52.672 321.927 53.512 324.503 53.512C326.164 53.512 327.592 53.148 328.787 52.42C330 51.6733 330.933 50.6 331.587 49.2L338.251 51.216C337.093 53.9413 335.301 56.06 332.875 57.572C330.467 59.084 327.807 59.84 324.895 59.84ZM314.479 45.756V40.66H335.283V45.756H314.479ZM353.245 59L365.957 18.68H375.841L388.553 59H381.609L370.073 22.824H371.585L360.189 59H353.245ZM360.329 50.264V43.964H381.497V50.264H360.329ZM414.531 59V44.44C414.531 43.488 414.466 42.4333 414.335 41.276C414.205 40.1187 413.897 39.008 413.411 37.944C412.945 36.8613 412.235 35.9747 411.283 35.284C410.35 34.5933 409.081 34.248 407.475 34.248C406.617 34.248 405.767 34.388 404.927 34.668C404.087 34.948 403.322 35.4333 402.631 36.124C401.959 36.796 401.418 37.7293 401.007 38.924C400.597 40.1 400.391 41.612 400.391 43.46L396.387 41.752C396.387 39.176 396.882 36.8427 397.871 34.752C398.879 32.6613 400.354 31 402.295 29.768C404.237 28.5173 406.626 27.892 409.463 27.892C411.703 27.892 413.551 28.2653 415.007 29.012C416.463 29.7587 417.621 30.7107 418.479 31.868C419.338 33.0253 419.973 34.2573 420.383 35.564C420.794 36.8707 421.055 38.112 421.167 39.288C421.298 40.4453 421.363 41.388 421.363 42.116V59H414.531ZM393.559 59V28.76H399.579V38.14H400.391V59H393.559ZM437.126 59.84C434.942 59.84 433.094 59.4293 431.582 58.608C430.07 57.768 428.922 56.6573 428.138 55.276C427.373 53.8947 426.99 52.3733 426.99 50.712C426.99 49.256 427.233 47.9493 427.718 46.792C428.203 45.616 428.95 44.608 429.958 43.768C430.966 42.9093 432.273 42.2093 433.878 41.668C435.091 41.276 436.51 40.9213 438.134 40.604C439.777 40.2867 441.55 39.9973 443.454 39.736C445.377 39.456 447.383 39.1573 449.474 38.84L447.066 40.212C447.085 38.1213 446.618 36.5813 445.666 35.592C444.714 34.6027 443.109 34.108 440.85 34.108C439.487 34.108 438.171 34.4253 436.902 35.06C435.633 35.6947 434.746 36.7867 434.242 38.336L428.082 36.404C428.829 33.8467 430.247 31.7933 432.338 30.244C434.447 28.6947 437.285 27.92 440.85 27.92C443.538 27.92 445.899 28.3587 447.934 29.236C449.987 30.1133 451.509 31.5507 452.498 33.548C453.039 34.612 453.366 35.704 453.478 36.824C453.59 37.9253 453.646 39.1293 453.646 40.436V59H447.738V52.448L448.718 53.512C447.355 55.696 445.759 57.3013 443.93 58.328C442.119 59.336 439.851 59.84 437.126 59.84ZM438.47 54.464C440.001 54.464 441.307 54.1933 442.39 53.652C443.473 53.1107 444.331 52.448 444.966 51.664C445.619 50.88 446.058 50.1427 446.282 49.452C446.637 48.5933 446.833 47.6133 446.87 46.512C446.926 45.392 446.954 44.4867 446.954 43.796L449.026 44.412C446.991 44.7293 445.246 45.0093 443.79 45.252C442.334 45.4947 441.083 45.728 440.038 45.952C438.993 46.1573 438.069 46.3907 437.266 46.652C436.482 46.932 435.819 47.2587 435.278 47.632C434.737 48.0053 434.317 48.4347 434.018 48.92C433.738 49.4053 433.598 49.9747 433.598 50.628C433.598 51.3747 433.785 52.0373 434.158 52.616C434.531 53.176 435.073 53.624 435.782 53.96C436.51 54.296 437.406 54.464 438.47 54.464ZM461.496 59V17.84H468.244V59H461.496ZM480.607 72.44L486.431 56.452L486.543 61.156L473.355 28.76H480.383L489.735 52.728H487.943L497.043 28.76H503.791L486.935 72.44H480.607ZM519.643 59.84C515.91 59.84 512.876 59 510.543 57.32C508.21 55.64 506.791 53.2787 506.287 50.236L513.175 49.172C513.53 50.6653 514.314 51.8413 515.527 52.7C516.74 53.5587 518.271 53.988 520.119 53.988C521.743 53.988 522.994 53.6707 523.871 53.036C524.767 52.3827 525.215 51.496 525.215 50.376C525.215 49.6853 525.047 49.1347 524.711 48.724C524.394 48.2947 523.684 47.884 522.583 47.492C521.482 47.1 519.792 46.6053 517.515 46.008C514.976 45.336 512.96 44.6173 511.467 43.852C509.974 43.068 508.9 42.144 508.247 41.08C507.594 40.016 507.267 38.728 507.267 37.216C507.267 35.3307 507.762 33.688 508.751 32.288C509.74 30.888 511.122 29.8147 512.895 29.068C514.668 28.3027 516.759 27.92 519.167 27.92C521.519 27.92 523.6 28.284 525.411 29.012C527.24 29.74 528.715 30.776 529.835 32.12C530.955 33.464 531.646 35.0413 531.907 36.852L525.019 38.084C524.851 36.796 524.263 35.7787 523.255 35.032C522.266 34.2853 520.94 33.8653 519.279 33.772C517.692 33.6787 516.414 33.9213 515.443 34.5C514.472 35.06 513.987 35.8533 513.987 36.88C513.987 37.4587 514.183 37.9533 514.575 38.364C514.967 38.7747 515.751 39.1853 516.927 39.596C518.122 40.0067 519.895 40.5107 522.247 41.108C524.655 41.724 526.578 42.4333 528.015 43.236C529.471 44.02 530.516 44.9627 531.151 46.064C531.804 47.1653 532.131 48.5 532.131 50.068C532.131 53.1107 531.02 55.5 528.799 57.236C526.596 58.972 523.544 59.84 519.643 59.84ZM538.824 24.168V17.98H545.572V24.168H538.824ZM538.824 59V28.76H545.572V59H538.824ZM565.635 59.84C561.902 59.84 558.868 59 556.535 57.32C554.202 55.64 552.783 53.2787 552.279 50.236L559.167 49.172C559.522 50.6653 560.306 51.8413 561.519 52.7C562.732 53.5587 564.263 53.988 566.111 53.988C567.735 53.988 568.986 53.6707 569.863 53.036C570.759 52.3827 571.207 51.496 571.207 50.376C571.207 49.6853 571.039 49.1347 570.703 48.724C570.386 48.2947 569.676 47.884 568.575 47.492C567.474 47.1 565.784 46.6053 563.507 46.008C560.968 45.336 558.952 44.6173 557.459 43.852C555.966 43.068 554.892 42.144 554.239 41.08C553.586 40.016 553.259 38.728 553.259 37.216C553.259 35.3307 553.754 33.688 554.743 32.288C555.732 30.888 557.114 29.8147 558.887 29.068C560.66 28.3027 562.751 27.92 565.159 27.92C567.511 27.92 569.592 28.284 571.403 29.012C573.232 29.74 574.707 30.776 575.827 32.12C576.947 33.464 577.638 35.0413 577.899 36.852L571.011 38.084C570.843 36.796 570.255 35.7787 569.247 35.032C568.258 34.2853 566.932 33.8653 565.271 33.772C563.684 33.6787 562.406 33.9213 561.435 34.5C560.464 35.06 559.979 35.8533 559.979 36.88C559.979 37.4587 560.175 37.9533 560.567 38.364C560.959 38.7747 561.743 39.1853 562.919 39.596C564.114 40.0067 565.887 40.5107 568.239 41.108C570.647 41.724 572.57 42.4333 574.007 43.236C575.463 44.02 576.508 44.9627 577.143 46.064C577.796 47.1653 578.123 48.5 578.123 50.068C578.123 53.1107 577.012 55.5 574.791 57.236C572.588 58.972 569.536 59.84 565.635 59.84Z" fill="#13151A"/>
<path d="M3 84H168" stroke="#47A7D0" stroke-width="6" stroke-linecap="round"/>
</svg>
