<svg width="1440" height="87" viewBox="0 0 1440 87" fill="none" xmlns="http://www.w3.org/2000/svg">
<path d="M6.92 59V18.68H13.668V35.648H32.764V18.68H39.484V59H32.764V41.976H13.668V59H6.92ZM47.8941 24.168V17.98H54.6421V24.168H47.8941ZM47.8941 59V28.76H54.6421V59H47.8941ZM62.4694 43.992V38.7H79.2694V43.992H62.4694ZM89.177 59V28.284C89.177 27.5187 89.205 26.6787 89.261 25.764C89.317 24.8307 89.4757 23.9067 89.737 22.992C89.9983 22.0773 90.4743 21.2467 91.165 20.5C92.0237 19.548 92.9477 18.8947 93.937 18.54C94.945 18.1667 95.9343 17.9613 96.905 17.924C97.8757 17.868 98.725 17.84 99.453 17.84H103.233V23.328H99.733C98.445 23.328 97.4837 23.6547 96.849 24.308C96.233 24.9427 95.925 25.7827 95.925 26.828V59H89.177ZM84.305 34.052V28.76H103.233V34.052H84.305ZM109.113 24.168V17.98H115.861V24.168H109.113ZM109.113 59V28.76H115.861V59H109.113ZM135.49 59V18.68H152.15C152.542 18.68 153.046 18.6987 153.662 18.736C154.278 18.7547 154.848 18.8107 155.37 18.904C157.704 19.2587 159.626 20.0333 161.138 21.228C162.669 22.4227 163.798 23.9347 164.526 25.764C165.273 27.5747 165.646 29.5907 165.646 31.812C165.646 34.0147 165.273 36.0307 164.526 37.86C163.78 39.6707 162.641 41.1733 161.11 42.368C159.598 43.5627 157.685 44.3373 155.37 44.692C154.848 44.7667 154.269 44.8227 153.634 44.86C153.018 44.8973 152.524 44.916 152.15 44.916H142.238V59H135.49ZM142.238 38.616H151.87C152.244 38.616 152.664 38.5973 153.13 38.56C153.597 38.5227 154.026 38.448 154.418 38.336C155.538 38.056 156.416 37.5613 157.05 36.852C157.704 36.1427 158.161 35.34 158.422 34.444C158.702 33.548 158.842 32.6707 158.842 31.812C158.842 30.9533 158.702 30.076 158.422 29.18C158.161 28.2653 157.704 27.4533 157.05 26.744C156.416 26.0347 155.538 25.54 154.418 25.26C154.026 25.148 153.597 25.0827 153.13 25.064C152.664 25.0267 152.244 25.008 151.87 25.008H142.238V38.616ZM171.256 59V28.76H177.22V36.124L176.492 35.172C176.865 34.164 177.36 33.2493 177.976 32.428C178.611 31.588 179.367 30.8973 180.244 30.356C180.991 29.852 181.812 29.46 182.708 29.18C183.623 28.8813 184.556 28.704 185.508 28.648C186.46 28.5733 187.384 28.6107 188.28 28.76V35.06C187.384 34.7987 186.348 34.7147 185.172 34.808C184.015 34.9013 182.969 35.228 182.036 35.788C181.103 36.292 180.337 36.936 179.74 37.72C179.161 38.504 178.732 39.4 178.452 40.408C178.172 41.3973 178.032 42.4707 178.032 43.628V59H171.256ZM206.432 59.84C203.408 59.84 200.767 59.1587 198.508 57.796C196.25 56.4333 194.495 54.5573 193.244 52.168C192.012 49.76 191.396 46.9973 191.396 43.88C191.396 40.7067 192.031 37.9253 193.3 35.536C194.57 33.1467 196.334 31.28 198.592 29.936C200.851 28.592 203.464 27.92 206.432 27.92C209.475 27.92 212.126 28.6013 214.384 29.964C216.643 31.3267 218.398 33.212 219.648 35.62C220.899 38.0093 221.524 40.7627 221.524 43.88C221.524 47.016 220.89 49.788 219.62 52.196C218.37 54.5853 216.615 56.4613 214.356 57.824C212.098 59.168 209.456 59.84 206.432 59.84ZM206.432 53.512C209.12 53.512 211.118 52.616 212.424 50.824C213.731 49.032 214.384 46.7173 214.384 43.88C214.384 40.9493 213.722 38.616 212.396 36.88C211.071 35.1253 209.083 34.248 206.432 34.248C204.622 34.248 203.128 34.6587 201.952 35.48C200.795 36.2827 199.936 37.412 199.376 38.868C198.816 40.3053 198.536 41.976 198.536 43.88C198.536 46.8107 199.199 49.1533 200.524 50.908C201.868 52.644 203.838 53.512 206.432 53.512ZM245.417 59C243.42 59.3733 241.46 59.532 239.537 59.476C237.633 59.4387 235.925 59.0933 234.413 58.44C232.901 57.768 231.753 56.7133 230.969 55.276C230.279 53.9693 229.915 52.6347 229.877 51.272C229.84 49.9093 229.821 48.3693 229.821 46.652V20.36H236.541V46.26C236.541 47.4733 236.551 48.5373 236.569 49.452C236.607 50.3667 236.803 51.1133 237.157 51.692C237.829 52.812 238.903 53.4373 240.377 53.568C241.852 53.6987 243.532 53.624 245.417 53.344V59ZM224.333 34.052V28.76H245.417V34.052H224.333ZM263.745 59.84C260.721 59.84 258.079 59.1587 255.821 57.796C253.562 56.4333 251.807 54.5573 250.557 52.168C249.325 49.76 248.709 46.9973 248.709 43.88C248.709 40.7067 249.343 37.9253 250.613 35.536C251.882 33.1467 253.646 31.28 255.905 29.936C258.163 28.592 260.777 27.92 263.745 27.92C266.787 27.92 269.438 28.6013 271.697 29.964C273.955 31.3267 275.71 33.212 276.961 35.62C278.211 38.0093 278.837 40.7627 278.837 43.88C278.837 47.016 278.202 49.788 276.933 52.196C275.682 54.5853 273.927 56.4613 271.669 57.824C269.41 59.168 266.769 59.84 263.745 59.84ZM263.745 53.512C266.433 53.512 268.43 52.616 269.737 50.824C271.043 49.032 271.697 46.7173 271.697 43.88C271.697 40.9493 271.034 38.616 269.709 36.88C268.383 35.1253 266.395 34.248 263.745 34.248C261.934 34.248 260.441 34.6587 259.265 35.48C258.107 36.2827 257.249 37.412 256.689 38.868C256.129 40.3053 255.849 41.976 255.849 43.88C255.849 46.8107 256.511 49.1533 257.837 50.908C259.181 52.644 261.15 53.512 263.745 53.512ZM302.73 59C300.733 59.3733 298.773 59.532 296.85 59.476C294.946 59.4387 293.238 59.0933 291.726 58.44C290.214 57.768 289.066 56.7133 288.282 55.276C287.591 53.9693 287.227 52.6347 287.19 51.272C287.153 49.9093 287.134 48.3693 287.134 46.652V20.36H293.854V46.26C293.854 47.4733 293.863 48.5373 293.882 49.452C293.919 50.3667 294.115 51.1133 294.47 51.692C295.142 52.812 296.215 53.4373 297.69 53.568C299.165 53.6987 300.845 53.624 302.73 53.344V59ZM281.646 34.052V28.76H302.73V34.052H281.646ZM312.388 72.44L318.212 56.452L318.324 61.156L305.136 28.76H312.164L321.516 52.728H319.724L328.824 28.76H335.572L318.716 72.44H312.388ZM354.28 59.84C351.331 59.84 348.857 59.14 346.86 57.74C344.863 56.34 343.36 54.436 342.352 52.028C341.344 49.6013 340.84 46.8853 340.84 43.88C340.84 40.8373 341.344 38.112 342.352 35.704C343.36 33.296 344.835 31.4013 346.776 30.02C348.736 28.62 351.153 27.92 354.028 27.92C356.884 27.92 359.357 28.62 361.448 30.02C363.557 31.4013 365.191 33.296 366.348 35.704C367.505 38.0933 368.084 40.8187 368.084 43.88C368.084 46.904 367.515 49.62 366.376 52.028C365.237 54.436 363.632 56.34 361.56 57.74C359.488 59.14 357.061 59.84 354.28 59.84ZM339.692 72.44V28.76H345.656V49.984H346.496V72.44H339.692ZM353.244 53.792C354.999 53.792 356.445 53.3533 357.584 52.476C358.723 51.5987 359.563 50.4133 360.104 48.92C360.664 47.408 360.944 45.728 360.944 43.88C360.944 42.0507 360.664 40.3893 360.104 38.896C359.544 37.384 358.676 36.1893 357.5 35.312C356.324 34.416 354.831 33.968 353.02 33.968C351.303 33.968 349.903 34.388 348.82 35.228C347.737 36.0493 346.935 37.2067 346.412 38.7C345.908 40.1747 345.656 41.9013 345.656 43.88C345.656 45.84 345.908 47.5667 346.412 49.06C346.935 50.5533 347.747 51.72 348.848 52.56C349.968 53.3813 351.433 53.792 353.244 53.792ZM388.004 59.84C384.943 59.84 382.255 59.1773 379.94 57.852C377.625 56.5267 375.815 54.688 374.508 52.336C373.22 49.984 372.576 47.2773 372.576 44.216C372.576 40.912 373.211 38.0467 374.48 35.62C375.749 33.1747 377.513 31.28 379.772 29.936C382.031 28.592 384.644 27.92 387.612 27.92C390.748 27.92 393.408 28.6573 395.592 30.132C397.795 31.588 399.428 33.6507 400.492 36.32C401.556 38.9893 401.957 42.1347 401.696 45.756H395.004V43.292C394.985 40.0067 394.407 37.608 393.268 36.096C392.129 34.584 390.337 33.828 387.892 33.828C385.129 33.828 383.076 34.6867 381.732 36.404C380.388 38.1027 379.716 40.5947 379.716 43.88C379.716 46.9413 380.388 49.312 381.732 50.992C383.076 52.672 385.036 53.512 387.612 53.512C389.273 53.512 390.701 53.148 391.896 52.42C393.109 51.6733 394.043 50.6 394.696 49.2L401.36 51.216C400.203 53.9413 398.411 56.06 395.984 57.572C393.576 59.084 390.916 59.84 388.004 59.84ZM377.588 45.756V40.66H398.392V45.756H377.588Z" fill="#13151A"/>
<path d="M3 84H163" stroke="#47A7D0" stroke-width="6" stroke-linecap="round"/>
</svg>
