<svg width="1443" height="87" viewBox="0 0 1443 87" fill="none" xmlns="http://www.w3.org/2000/svg">
<path d="M7.48 59V18.68H14.228V59H7.48ZM43.5313 59V44.44C43.5313 43.488 43.466 42.4333 43.3353 41.276C43.2046 40.1187 42.8966 39.008 42.4113 37.944C41.9446 36.8613 41.2353 35.9747 40.2833 35.284C39.35 34.5933 38.0806 34.248 36.4753 34.248C35.6166 34.248 34.7673 34.388 33.9273 34.668C33.0873 34.948 32.322 35.4333 31.6313 36.124C30.9593 36.796 30.418 37.7293 30.0073 38.924C29.5966 40.1 29.3913 41.612 29.3913 43.46L25.3873 41.752C25.3873 39.176 25.882 36.8427 26.8713 34.752C27.8793 32.6613 29.354 31 31.2953 29.768C33.2366 28.5173 35.626 27.892 38.4633 27.892C40.7033 27.892 42.5513 28.2653 44.0073 29.012C45.4633 29.7587 46.6206 30.7107 47.4793 31.868C48.338 33.0253 48.9726 34.2573 49.3833 35.564C49.794 36.8707 50.0553 38.112 50.1673 39.288C50.298 40.4453 50.3633 41.388 50.3633 42.116V59H43.5313ZM22.5593 59V28.76H28.5793V38.14H29.3913V59H22.5593ZM60.302 59V28.284C60.302 27.5187 60.33 26.6787 60.386 25.764C60.442 24.8307 60.6007 23.9067 60.862 22.992C61.1233 22.0773 61.5993 21.2467 62.29 20.5C63.1487 19.548 64.0727 18.8947 65.062 18.54C66.07 18.1667 67.0593 17.9613 68.03 17.924C69.0007 17.868 69.85 17.84 70.578 17.84H74.358V23.328H70.858C69.57 23.328 68.6087 23.6547 67.974 24.308C67.358 24.9427 67.05 25.7827 67.05 26.828V59H60.302ZM55.43 34.052V28.76H74.358V34.052H55.43ZM91.0963 59.84C88.0723 59.84 85.431 59.1587 83.1723 57.796C80.9136 56.4333 79.159 54.5573 77.9083 52.168C76.6763 49.76 76.0603 46.9973 76.0603 43.88C76.0603 40.7067 76.695 37.9253 77.9643 35.536C79.2336 33.1467 80.9976 31.28 83.2563 29.936C85.515 28.592 88.1283 27.92 91.0963 27.92C94.139 27.92 96.7896 28.6013 99.0483 29.964C101.307 31.3267 103.062 33.212 104.312 35.62C105.563 38.0093 106.188 40.7627 106.188 43.88C106.188 47.016 105.554 49.788 104.284 52.196C103.034 54.5853 101.279 56.4613 99.0203 57.824C96.7616 59.168 94.1203 59.84 91.0963 59.84ZM91.0963 53.512C93.7843 53.512 95.7816 52.616 97.0883 50.824C98.395 49.032 99.0483 46.7173 99.0483 43.88C99.0483 40.9493 98.3856 38.616 97.0603 36.88C95.735 35.1253 93.747 34.248 91.0963 34.248C89.2856 34.248 87.7923 34.6587 86.6163 35.48C85.459 36.2827 84.6003 37.412 84.0403 38.868C83.4803 40.3053 83.2003 41.976 83.2003 43.88C83.2003 46.8107 83.863 49.1533 85.1883 50.908C86.5323 52.644 88.5016 53.512 91.0963 53.512ZM112.358 59V28.76H118.322V36.124L117.594 35.172C117.967 34.164 118.462 33.2493 119.078 32.428C119.712 31.588 120.468 30.8973 121.346 30.356C122.092 29.852 122.914 29.46 123.81 29.18C124.724 28.8813 125.658 28.704 126.61 28.648C127.562 28.5733 128.486 28.6107 129.382 28.76V35.06C128.486 34.7987 127.45 34.7147 126.274 34.808C125.116 34.9013 124.071 35.228 123.138 35.788C122.204 36.292 121.439 36.936 120.842 37.72C120.263 38.504 119.834 39.4 119.554 40.408C119.274 41.3973 119.134 42.4707 119.134 43.628V59H112.358ZM171.041 59V40.632C171.041 38.56 170.527 36.9453 169.501 35.788C168.474 34.612 167.083 34.024 165.329 34.024C164.246 34.024 163.275 34.276 162.417 34.78C161.558 35.2653 160.877 35.9933 160.373 36.964C159.869 37.916 159.617 39.0547 159.617 40.38L156.621 38.616C156.602 36.5253 157.069 34.6867 158.021 33.1C158.991 31.4947 160.298 30.244 161.941 29.348C163.583 28.452 165.413 28.004 167.429 28.004C170.77 28.004 173.327 29.012 175.101 31.028C176.893 33.0253 177.789 35.6573 177.789 38.924V59H171.041ZM134.669 59V28.76H140.633V38.14H141.473V59H134.669ZM152.897 59V40.716C152.897 38.6067 152.383 36.964 151.357 35.788C150.33 34.612 148.93 34.024 147.157 34.024C145.439 34.024 144.058 34.612 143.013 35.788C141.986 36.964 141.473 38.4947 141.473 40.38L138.449 38.364C138.449 36.404 138.934 34.64 139.905 33.072C140.875 31.504 142.182 30.272 143.825 29.376C145.486 28.4613 147.343 28.004 149.397 28.004C151.655 28.004 153.541 28.4893 155.053 29.46C156.583 30.412 157.722 31.7187 158.469 33.38C159.234 35.0227 159.617 36.88 159.617 38.952V59H152.897ZM193.548 59.84C191.364 59.84 189.516 59.4293 188.004 58.608C186.492 57.768 185.344 56.6573 184.56 55.276C183.795 53.8947 183.412 52.3733 183.412 50.712C183.412 49.256 183.655 47.9493 184.14 46.792C184.625 45.616 185.372 44.608 186.38 43.768C187.388 42.9093 188.695 42.2093 190.3 41.668C191.513 41.276 192.932 40.9213 194.556 40.604C196.199 40.2867 197.972 39.9973 199.876 39.736C201.799 39.456 203.805 39.1573 205.896 38.84L203.488 40.212C203.507 38.1213 203.04 36.5813 202.088 35.592C201.136 34.6027 199.531 34.108 197.272 34.108C195.909 34.108 194.593 34.4253 193.324 35.06C192.055 35.6947 191.168 36.7867 190.664 38.336L184.504 36.404C185.251 33.8467 186.669 31.7933 188.76 30.244C190.869 28.6947 193.707 27.92 197.272 27.92C199.96 27.92 202.321 28.3587 204.356 29.236C206.409 30.1133 207.931 31.5507 208.92 33.548C209.461 34.612 209.788 35.704 209.9 36.824C210.012 37.9253 210.068 39.1293 210.068 40.436V59H204.16V52.448L205.14 53.512C203.777 55.696 202.181 57.3013 200.352 58.328C198.541 59.336 196.273 59.84 193.548 59.84ZM194.892 54.464C196.423 54.464 197.729 54.1933 198.812 53.652C199.895 53.1107 200.753 52.448 201.388 51.664C202.041 50.88 202.48 50.1427 202.704 49.452C203.059 48.5933 203.255 47.6133 203.292 46.512C203.348 45.392 203.376 44.4867 203.376 43.796L205.448 44.412C203.413 44.7293 201.668 45.0093 200.212 45.252C198.756 45.4947 197.505 45.728 196.46 45.952C195.415 46.1573 194.491 46.3907 193.688 46.652C192.904 46.932 192.241 47.2587 191.7 47.632C191.159 48.0053 190.739 48.4347 190.44 48.92C190.16 49.4053 190.02 49.9747 190.02 50.628C190.02 51.3747 190.207 52.0373 190.58 52.616C190.953 53.176 191.495 53.624 192.204 53.96C192.932 54.296 193.828 54.464 194.892 54.464ZM235.082 59C233.084 59.3733 231.124 59.532 229.202 59.476C227.298 59.4387 225.59 59.0933 224.078 58.44C222.566 57.768 221.418 56.7133 220.633 55.276C219.943 53.9693 219.579 52.6347 219.542 51.272C219.504 49.9093 219.486 48.3693 219.486 46.652V20.36H226.206V46.26C226.206 47.4733 226.215 48.5373 226.234 49.452C226.271 50.3667 226.467 51.1133 226.822 51.692C227.494 52.812 228.567 53.4373 230.042 53.568C231.516 53.6987 233.196 53.624 235.082 53.344V59ZM213.998 34.052V28.76H235.082V34.052H213.998ZM242.144 24.168V17.98H248.892V24.168H242.144ZM242.144 59V28.76H248.892V59H242.144ZM270.635 59.84C267.611 59.84 264.97 59.1587 262.711 57.796C260.453 56.4333 258.698 54.5573 257.447 52.168C256.215 49.76 255.599 46.9973 255.599 43.88C255.599 40.7067 256.234 37.9253 257.503 35.536C258.773 33.1467 260.537 31.28 262.795 29.936C265.054 28.592 267.667 27.92 270.635 27.92C273.678 27.92 276.329 28.6013 278.587 29.964C280.846 31.3267 282.601 33.212 283.851 35.62C285.102 38.0093 285.727 40.7627 285.727 43.88C285.727 47.016 285.093 49.788 283.823 52.196C282.573 54.5853 280.818 56.4613 278.559 57.824C276.301 59.168 273.659 59.84 270.635 59.84ZM270.635 53.512C273.323 53.512 275.321 52.616 276.627 50.824C277.934 49.032 278.587 46.7173 278.587 43.88C278.587 40.9493 277.925 38.616 276.599 36.88C275.274 35.1253 273.286 34.248 270.635 34.248C268.825 34.248 267.331 34.6587 266.155 35.48C264.998 36.2827 264.139 37.412 263.579 38.868C263.019 40.3053 262.739 41.976 262.739 43.88C262.739 46.8107 263.402 49.1533 264.727 50.908C266.071 52.644 268.041 53.512 270.635 53.512ZM312.813 59V44.44C312.813 43.488 312.747 42.4333 312.617 41.276C312.486 40.1187 312.178 39.008 311.693 37.944C311.226 36.8613 310.517 35.9747 309.565 35.284C308.631 34.5933 307.362 34.248 305.757 34.248C304.898 34.248 304.049 34.388 303.209 34.668C302.369 34.948 301.603 35.4333 300.913 36.124C300.241 36.796 299.699 37.7293 299.289 38.924C298.878 40.1 298.673 41.612 298.673 43.46L294.669 41.752C294.669 39.176 295.163 36.8427 296.153 34.752C297.161 32.6613 298.635 31 300.577 29.768C302.518 28.5173 304.907 27.892 307.745 27.892C309.985 27.892 311.833 28.2653 313.289 29.012C314.745 29.7587 315.902 30.7107 316.761 31.868C317.619 33.0253 318.254 34.2573 318.665 35.564C319.075 36.8707 319.337 38.112 319.449 39.288C319.579 40.4453 319.645 41.388 319.645 42.116V59H312.813ZM291.841 59V28.76H297.861V38.14H298.673V59H291.841ZM335.362 59L348.074 18.68H357.958L370.67 59H363.726L352.19 22.824H353.702L342.306 59H335.362ZM342.446 50.264V43.964H363.614V50.264H342.446ZM375.733 59V28.76H381.697V36.124L380.969 35.172C381.342 34.164 381.837 33.2493 382.453 32.428C383.087 31.588 383.843 30.8973 384.721 30.356C385.467 29.852 386.289 29.46 387.185 29.18C388.099 28.8813 389.033 28.704 389.985 28.648C390.937 28.5733 391.861 28.6107 392.757 28.76V35.06C391.861 34.7987 390.825 34.7147 389.649 34.808C388.491 34.9013 387.446 35.228 386.513 35.788C385.579 36.292 384.814 36.936 384.217 37.72C383.638 38.504 383.209 39.4 382.929 40.408C382.649 41.3973 382.509 42.4707 382.509 43.628V59H375.733ZM410.685 59.84C407.567 59.84 404.907 59.1493 402.705 57.768C400.502 56.368 398.813 54.464 397.637 52.056C396.479 49.648 395.891 46.9227 395.873 43.88C395.891 40.7813 396.498 38.0373 397.693 35.648C398.906 33.24 400.623 31.3547 402.845 29.992C405.066 28.6107 407.707 27.92 410.769 27.92C414.203 27.92 417.106 28.788 419.477 30.524C421.866 32.2413 423.425 34.5933 424.153 37.58L417.433 39.4C416.91 37.776 416.042 36.516 414.829 35.62C413.615 34.7053 412.234 34.248 410.685 34.248C408.93 34.248 407.483 34.668 406.345 35.508C405.206 36.3293 404.366 37.468 403.825 38.924C403.283 40.38 403.013 42.032 403.013 43.88C403.013 46.7547 403.657 49.0787 404.945 50.852C406.233 52.6253 408.146 53.512 410.685 53.512C412.477 53.512 413.886 53.1013 414.913 52.28C415.958 51.4587 416.742 50.2733 417.265 48.724L424.153 50.264C423.219 53.344 421.586 55.7147 419.253 57.376C416.919 59.0187 414.063 59.84 410.685 59.84ZM450.68 59V44.44C450.68 43.488 450.614 42.4333 450.484 41.276C450.353 40.1187 450.045 39.008 449.56 37.944C449.093 36.8613 448.384 35.9747 447.432 35.284C446.498 34.5933 445.229 34.248 443.624 34.248C442.765 34.248 441.916 34.388 441.076 34.668C440.236 34.948 439.47 35.4333 438.78 36.124C438.108 36.796 437.566 37.7293 437.156 38.924C436.745 40.1 436.54 41.612 436.54 43.46L432.536 41.752C432.536 39.176 433.03 36.8427 434.02 34.752C435.028 32.6613 436.502 31 438.444 29.768C440.385 28.5173 442.774 27.892 445.612 27.892C447.852 27.892 449.7 28.2653 451.156 29.012C452.612 29.7587 453.769 30.7107 454.628 31.868C455.486 33.0253 456.121 34.2573 456.532 35.564C456.942 36.8707 457.204 38.112 457.316 39.288C457.446 40.4453 457.512 41.388 457.512 42.116V59H450.68ZM429.708 59V18.68H435.728V39.904H436.54V59H429.708ZM465.378 24.168V17.98H472.126V24.168H465.378ZM465.378 59V28.76H472.126V59H465.378ZM498.238 59C496.24 59.3733 494.28 59.532 492.358 59.476C490.454 59.4387 488.746 59.0933 487.234 58.44C485.722 57.768 484.574 56.7133 483.79 55.276C483.099 53.9693 482.735 52.6347 482.698 51.272C482.66 49.9093 482.642 48.3693 482.642 46.652V20.36H489.362V46.26C489.362 47.4733 489.371 48.5373 489.39 49.452C489.427 50.3667 489.623 51.1133 489.978 51.692C490.65 52.812 491.723 53.4373 493.198 53.568C494.672 53.6987 496.352 53.624 498.238 53.344V59ZM477.154 34.052V28.76H498.238V34.052H477.154ZM516.957 59.84C513.896 59.84 511.208 59.1773 508.893 57.852C506.578 56.5267 504.768 54.688 503.461 52.336C502.173 49.984 501.529 47.2773 501.529 44.216C501.529 40.912 502.164 38.0467 503.433 35.62C504.702 33.1747 506.466 31.28 508.725 29.936C510.984 28.592 513.597 27.92 516.565 27.92C519.701 27.92 522.361 28.6573 524.545 30.132C526.748 31.588 528.381 33.6507 529.445 36.32C530.509 38.9893 530.91 42.1347 530.649 45.756H523.957V43.292C523.938 40.0067 523.36 37.608 522.221 36.096C521.082 34.584 519.29 33.828 516.845 33.828C514.082 33.828 512.029 34.6867 510.685 36.404C509.341 38.1027 508.669 40.5947 508.669 43.88C508.669 46.9413 509.341 49.312 510.685 50.992C512.029 52.672 513.989 53.512 516.565 53.512C518.226 53.512 519.654 53.148 520.849 52.42C522.062 51.6733 522.996 50.6 523.649 49.2L530.313 51.216C529.156 53.9413 527.364 56.06 524.937 57.572C522.529 59.084 519.869 59.84 516.957 59.84ZM506.541 45.756V40.66H527.345V45.756H506.541ZM550.029 59.84C546.911 59.84 544.251 59.1493 542.049 57.768C539.846 56.368 538.157 54.464 536.981 52.056C535.823 49.648 535.235 46.9227 535.217 43.88C535.235 40.7813 535.842 38.0373 537.037 35.648C538.25 33.24 539.967 31.3547 542.189 29.992C544.41 28.6107 547.051 27.92 550.113 27.92C553.547 27.92 556.45 28.788 558.821 30.524C561.21 32.2413 562.769 34.5933 563.497 37.58L556.777 39.4C556.254 37.776 555.386 36.516 554.173 35.62C552.959 34.7053 551.578 34.248 550.029 34.248C548.274 34.248 546.827 34.668 545.689 35.508C544.55 36.3293 543.71 37.468 543.169 38.924C542.627 40.38 542.357 42.032 542.357 43.88C542.357 46.7547 543.001 49.0787 544.289 50.852C545.577 52.6253 547.49 53.512 550.029 53.512C551.821 53.512 553.23 53.1013 554.257 52.28C555.302 51.4587 556.086 50.2733 556.609 48.724L563.497 50.264C562.563 53.344 560.93 55.7147 558.597 57.376C556.263 59.0187 553.407 59.84 550.029 59.84ZM586.832 59C584.834 59.3733 582.874 59.532 580.952 59.476C579.048 59.4387 577.34 59.0933 575.828 58.44C574.316 57.768 573.168 56.7133 572.383 55.276C571.693 53.9693 571.329 52.6347 571.292 51.272C571.254 49.9093 571.236 48.3693 571.236 46.652V20.36H577.956V46.26C577.956 47.4733 577.965 48.5373 577.984 49.452C578.021 50.3667 578.217 51.1133 578.572 51.692C579.244 52.812 580.317 53.4373 581.792 53.568C583.266 53.6987 584.946 53.624 586.832 53.344V59ZM565.748 34.052V28.76H586.832V34.052H565.748ZM604.674 59.868C602.434 59.868 600.586 59.4947 599.13 58.748C597.674 58.0013 596.517 57.0493 595.658 55.892C594.799 54.7347 594.165 53.5027 593.754 52.196C593.343 50.8893 593.073 49.6573 592.942 48.5C592.83 47.324 592.774 46.372 592.774 45.644V28.76H599.606V43.32C599.606 44.2533 599.671 45.308 599.802 46.484C599.933 47.6413 600.231 48.7613 600.698 49.844C601.183 50.908 601.893 51.7853 602.826 52.476C603.778 53.1667 605.057 53.512 606.662 53.512C607.521 53.512 608.37 53.372 609.21 53.092C610.05 52.812 610.806 52.336 611.478 51.664C612.169 50.9733 612.719 50.0307 613.13 48.836C613.541 47.6413 613.746 46.1293 613.746 44.3L617.75 46.008C617.75 48.584 617.246 50.9173 616.238 53.008C615.249 55.0987 613.783 56.7693 611.842 58.02C609.901 59.252 607.511 59.868 604.674 59.868ZM614.558 59V49.62H613.746V28.76H620.522V59H614.558ZM628.389 59V28.76H634.353V36.124L633.625 35.172C633.998 34.164 634.493 33.2493 635.109 32.428C635.743 31.588 636.499 30.8973 637.377 30.356C638.123 29.852 638.945 29.46 639.841 29.18C640.755 28.8813 641.689 28.704 642.641 28.648C643.593 28.5733 644.517 28.6107 645.413 28.76V35.06C644.517 34.7987 643.481 34.7147 642.305 34.808C641.147 34.9013 640.102 35.228 639.169 35.788C638.235 36.292 637.47 36.936 636.873 37.72C636.294 38.504 635.865 39.4 635.585 40.408C635.305 41.3973 635.165 42.4707 635.165 43.628V59H628.389ZM663.957 59.84C660.896 59.84 658.208 59.1773 655.893 57.852C653.578 56.5267 651.768 54.688 650.461 52.336C649.173 49.984 648.529 47.2773 648.529 44.216C648.529 40.912 649.164 38.0467 650.433 35.62C651.702 33.1747 653.466 31.28 655.725 29.936C657.984 28.592 660.597 27.92 663.565 27.92C666.701 27.92 669.361 28.6573 671.545 30.132C673.748 31.588 675.381 33.6507 676.445 36.32C677.509 38.9893 677.91 42.1347 677.649 45.756H670.957V43.292C670.938 40.0067 670.36 37.608 669.221 36.096C668.082 34.584 666.29 33.828 663.845 33.828C661.082 33.828 659.029 34.6867 657.685 36.404C656.341 38.1027 655.669 40.5947 655.669 43.88C655.669 46.9413 656.341 49.312 657.685 50.992C659.029 52.672 660.989 53.512 663.565 53.512C665.226 53.512 666.654 53.148 667.849 52.42C669.062 51.6733 669.996 50.6 670.649 49.2L677.313 51.216C676.156 53.9413 674.364 56.06 671.937 57.572C669.529 59.084 666.869 59.84 663.957 59.84ZM653.541 45.756V40.66H674.345V45.756H653.541Z" fill="#13151A"/>
<path d="M3 84H251" stroke="#47A7D0" stroke-width="6" stroke-linecap="round"/>
</svg>
