<svg width="479" height="364" viewBox="0 0 479 364" fill="none" xmlns="http://www.w3.org/2000/svg">
<rect x="0.25" y="0.25" width="478.5" height="363.5" fill="#F0F2F5"/>
<rect x="0.25" y="0.25" width="478.5" height="363.5" stroke="#2E2E2E" stroke-width="0.5"/>
<path d="M131.36 167.76V197H126.24V167.76H131.36ZM141.202 197H136.322V177.24H140.842L141.242 179.8C142.482 177.8 144.882 176.64 147.562 176.64C152.522 176.64 155.082 179.72 155.082 184.84V197H150.202V186C150.202 182.68 148.562 181.08 146.042 181.08C143.042 181.08 141.202 183.16 141.202 186.36V197ZM169.057 206.16V177.24H173.577L173.897 180.24C175.097 177.96 177.697 176.64 180.697 176.64C186.257 176.64 189.938 180.68 189.938 186.88C189.938 193.04 186.578 197.52 180.697 197.52C177.737 197.52 175.177 196.36 173.937 194.36V206.16H169.057ZM173.977 187.12C173.977 190.68 176.177 193.12 179.537 193.12C182.977 193.12 185.017 190.64 185.017 187.12C185.017 183.6 182.977 181.08 179.537 181.08C176.177 181.08 173.977 183.56 173.977 187.12ZM205.423 177.16V181.68H203.623C200.103 181.68 197.903 183.56 197.903 187.4V197H193.023V177.28H197.623L197.903 180.16C198.743 178.2 200.623 176.88 203.263 176.88C203.943 176.88 204.623 176.96 205.423 177.16ZM206.102 187.08C206.102 180.92 210.542 176.68 216.662 176.68C222.782 176.68 227.222 180.92 227.222 187.08C227.222 193.24 222.782 197.48 216.662 197.48C210.542 197.48 206.102 193.24 206.102 187.08ZM210.982 187.08C210.982 190.68 213.302 193.12 216.662 193.12C220.022 193.12 222.342 190.68 222.342 187.08C222.342 183.48 220.022 181.04 216.662 181.04C213.302 181.04 210.982 183.48 210.982 187.08ZM229.17 186.68C229.17 180.92 232.93 176.6 238.57 176.6C241.53 176.6 243.85 177.84 245.01 179.96L245.29 177.24H249.81V196C249.81 202.6 245.85 206.72 239.45 206.72C233.77 206.72 229.89 203.48 229.29 198.2H234.17C234.49 200.76 236.45 202.28 239.45 202.28C242.81 202.28 244.97 200.16 244.97 196.88V193.6C243.73 195.44 241.29 196.6 238.45 196.6C232.85 196.6 229.17 192.4 229.17 186.68ZM234.09 186.56C234.09 189.88 236.21 192.36 239.41 192.36C242.77 192.36 244.85 190 244.85 186.56C244.85 183.2 242.81 180.88 239.41 180.88C236.17 180.88 234.09 183.32 234.09 186.56ZM266.461 177.16V181.68H264.661C261.141 181.68 258.941 183.56 258.941 187.4V197H254.061V177.28H258.661L258.941 180.16C259.781 178.2 261.661 176.88 264.301 176.88C264.981 176.88 265.661 176.96 266.461 177.16ZM277.14 197.52C271.26 197.52 267.14 193.24 267.14 187.12C267.14 180.92 271.18 176.64 276.98 176.64C282.9 176.64 286.66 180.6 286.66 186.76V188.24L271.78 188.28C272.14 191.76 273.98 193.52 277.22 193.52C279.9 193.52 281.66 192.48 282.22 190.6H286.74C285.9 194.92 282.3 197.52 277.14 197.52ZM277.02 180.64C274.14 180.64 272.38 182.2 271.9 185.16H281.82C281.82 182.44 279.94 180.64 277.02 180.64ZM288.245 191H292.885C292.925 192.72 294.205 193.8 296.445 193.8C298.725 193.8 299.965 192.88 299.965 191.44C299.965 190.44 299.445 189.72 297.685 189.32L294.125 188.48C290.565 187.68 288.845 186 288.845 182.84C288.845 178.96 292.125 176.64 296.685 176.64C301.125 176.64 304.125 179.2 304.165 183.04H299.525C299.485 181.36 298.365 180.28 296.485 180.28C294.565 180.28 293.445 181.16 293.445 182.64C293.445 183.76 294.325 184.48 296.005 184.88L299.565 185.72C302.885 186.48 304.565 188 304.565 191.04C304.565 195.04 301.165 197.52 296.285 197.52C291.365 197.52 288.245 194.88 288.245 191ZM305.961 191H310.601C310.641 192.72 311.921 193.8 314.161 193.8C316.441 193.8 317.681 192.88 317.681 191.44C317.681 190.44 317.161 189.72 315.401 189.32L311.841 188.48C308.281 187.68 306.561 186 306.561 182.84C306.561 178.96 309.841 176.64 314.401 176.64C318.841 176.64 321.841 179.2 321.881 183.04H317.241C317.201 181.36 316.081 180.28 314.201 180.28C312.281 180.28 311.161 181.16 311.161 182.64C311.161 183.76 312.041 184.48 313.721 184.88L317.281 185.72C320.601 186.48 322.281 188 322.281 191.04C322.281 195.04 318.881 197.52 314.001 197.52C309.081 197.52 305.961 194.88 305.961 191ZM328.359 197.48C326.599 197.48 325.119 196.04 325.119 194.32C325.119 192.56 326.599 191.12 328.359 191.12C330.119 191.12 331.599 192.56 331.599 194.32C331.599 196.04 330.119 197.48 328.359 197.48ZM339.2 197.48C337.44 197.48 335.96 196.04 335.96 194.32C335.96 192.56 337.44 191.12 339.2 191.12C340.96 191.12 342.44 192.56 342.44 194.32C342.44 196.04 340.96 197.48 339.2 197.48ZM350.041 197.48C348.281 197.48 346.801 196.04 346.801 194.32C346.801 192.56 348.281 191.12 350.041 191.12C351.801 191.12 353.281 192.56 353.281 194.32C353.281 196.04 351.801 197.48 350.041 197.48Z" fill="#2E2E2E"/>
</svg>
