<svg width="1443" height="87" viewBox="0 0 1443 87" fill="none" xmlns="http://www.w3.org/2000/svg">
<path d="M23.16 59.84C19.9493 59.84 17.1213 59.1867 14.676 57.88C12.2493 56.5733 10.3453 54.7347 8.964 52.364C7.60133 49.9933 6.92 47.212 6.92 44.02V18.736L13.752 18.68V43.852C13.752 45.364 14.004 46.7173 14.508 47.912C15.0307 49.1067 15.7307 50.124 16.608 50.964C17.4853 51.7853 18.4933 52.4107 19.632 52.84C20.7707 53.2693 21.9467 53.484 23.16 53.484C24.4107 53.484 25.596 53.2693 26.716 52.84C27.8547 52.392 28.8627 51.7573 29.74 50.936C30.6173 50.096 31.308 49.0787 31.812 47.884C32.316 46.6893 32.568 45.3453 32.568 43.852V18.68H39.4V44.02C39.4 47.212 38.7093 49.9933 37.328 52.364C35.9653 54.7347 34.0613 56.5733 31.616 57.88C29.1893 59.1867 26.3707 59.84 23.16 59.84ZM58.9007 59.84C55.1674 59.84 52.134 59 49.8007 57.32C47.4674 55.64 46.0487 53.2787 45.5447 50.236L52.4327 49.172C52.7874 50.6653 53.5714 51.8413 54.7847 52.7C55.998 53.5587 57.5287 53.988 59.3767 53.988C61.0007 53.988 62.2514 53.6707 63.1287 53.036C64.0247 52.3827 64.4727 51.496 64.4727 50.376C64.4727 49.6853 64.3047 49.1347 63.9687 48.724C63.6514 48.2947 62.942 47.884 61.8407 47.492C60.7394 47.1 59.05 46.6053 56.7727 46.008C54.234 45.336 52.218 44.6173 50.7247 43.852C49.2314 43.068 48.158 42.144 47.5047 41.08C46.8514 40.016 46.5247 38.728 46.5247 37.216C46.5247 35.3307 47.0194 33.688 48.0087 32.288C48.998 30.888 50.3794 29.8147 52.1527 29.068C53.926 28.3027 56.0167 27.92 58.4247 27.92C60.7767 27.92 62.858 28.284 64.6687 29.012C66.498 29.74 67.9727 30.776 69.0927 32.12C70.2127 33.464 70.9034 35.0413 71.1647 36.852L64.2767 38.084C64.1087 36.796 63.5207 35.7787 62.5127 35.032C61.5234 34.2853 60.198 33.8653 58.5367 33.772C56.95 33.6787 55.6714 33.9213 54.7007 34.5C53.73 35.06 53.2447 35.8533 53.2447 36.88C53.2447 37.4587 53.4407 37.9533 53.8327 38.364C54.2247 38.7747 55.0087 39.1853 56.1847 39.596C57.3794 40.0067 59.1527 40.5107 61.5047 41.108C63.9127 41.724 65.8354 42.4333 67.2727 43.236C68.7287 44.02 69.774 44.9627 70.4087 46.064C71.062 47.1653 71.3887 48.5 71.3887 50.068C71.3887 53.1107 70.278 55.5 68.0567 57.236C65.854 58.972 62.802 59.84 58.9007 59.84ZM91.2696 59.84C88.2082 59.84 85.5202 59.1773 83.2056 57.852C80.8909 56.5267 79.0802 54.688 77.7736 52.336C76.4856 49.984 75.8416 47.2773 75.8416 44.216C75.8416 40.912 76.4762 38.0467 77.7456 35.62C79.0149 33.1747 80.7789 31.28 83.0376 29.936C85.2962 28.592 87.9096 27.92 90.8776 27.92C94.0136 27.92 96.6736 28.6573 98.8576 30.132C101.06 31.588 102.694 33.6507 103.758 36.32C104.822 38.9893 105.223 42.1347 104.962 45.756H98.2696V43.292C98.2509 40.0067 97.6722 37.608 96.5336 36.096C95.3949 34.584 93.6029 33.828 91.1576 33.828C88.3949 33.828 86.3416 34.6867 84.9976 36.404C83.6536 38.1027 82.9816 40.5947 82.9816 43.88C82.9816 46.9413 83.6536 49.312 84.9976 50.992C86.3416 52.672 88.3016 53.512 90.8776 53.512C92.5389 53.512 93.9669 53.148 95.1616 52.42C96.3749 51.6733 97.3082 50.6 97.9616 49.2L104.626 51.216C103.468 53.9413 101.676 56.06 99.2496 57.572C96.8416 59.084 94.1816 59.84 91.2696 59.84ZM80.8536 45.756V40.66H101.658V45.756H80.8536ZM111.209 59V28.76H117.173V36.124L116.445 35.172C116.818 34.164 117.313 33.2493 117.929 32.428C118.564 31.588 119.32 30.8973 120.197 30.356C120.944 29.852 121.765 29.46 122.661 29.18C123.576 28.8813 124.509 28.704 125.461 28.648C126.413 28.5733 127.337 28.6107 128.233 28.76V35.06C127.337 34.7987 126.301 34.7147 125.125 34.808C123.968 34.9013 122.922 35.228 121.989 35.788C121.056 36.292 120.29 36.936 119.693 37.72C119.114 38.504 118.685 39.4 118.405 40.408C118.125 41.3973 117.985 42.4707 117.985 43.628V59H111.209ZM152.851 59.84C149.771 59.84 147.205 59.0373 145.151 57.432C143.117 55.8267 141.689 53.6613 140.867 50.936L147.531 49.34C147.737 50.4787 148.334 51.4587 149.323 52.28C150.313 53.1013 151.405 53.512 152.599 53.512C153.383 53.512 154.214 53.3067 155.091 52.896C155.969 52.4667 156.622 51.7853 157.051 50.852C157.313 50.2547 157.462 49.5453 157.499 48.724C157.555 47.884 157.583 46.9133 157.583 45.812V18.68H164.415V45.812C164.415 47.0627 164.406 48.164 164.387 49.116C164.387 50.0493 164.294 50.936 164.107 51.776C163.939 52.5973 163.594 53.4467 163.071 54.324C161.97 56.228 160.533 57.628 158.759 58.524C156.986 59.4013 155.017 59.84 152.851 59.84ZM186.198 59.84C183.174 59.84 180.533 59.1587 178.274 57.796C176.015 56.4333 174.261 54.5573 173.01 52.168C171.778 49.76 171.162 46.9973 171.162 43.88C171.162 40.7067 171.797 37.9253 173.066 35.536C174.335 33.1467 176.099 31.28 178.358 29.936C180.617 28.592 183.23 27.92 186.198 27.92C189.241 27.92 191.891 28.6013 194.15 29.964C196.409 31.3267 198.163 33.212 199.414 35.62C200.665 38.0093 201.29 40.7627 201.29 43.88C201.29 47.016 200.655 49.788 199.386 52.196C198.135 54.5853 196.381 56.4613 194.122 57.824C191.863 59.168 189.222 59.84 186.198 59.84ZM186.198 53.512C188.886 53.512 190.883 52.616 192.19 50.824C193.497 49.032 194.15 46.7173 194.15 43.88C194.15 40.9493 193.487 38.616 192.162 36.88C190.837 35.1253 188.849 34.248 186.198 34.248C184.387 34.248 182.894 34.6587 181.718 35.48C180.561 36.2827 179.702 37.412 179.142 38.868C178.582 40.3053 178.302 41.976 178.302 43.88C178.302 46.8107 178.965 49.1533 180.29 50.908C181.634 52.644 183.603 53.512 186.198 53.512ZM218.799 59.868C216.559 59.868 214.711 59.4947 213.255 58.748C211.799 58.0013 210.642 57.0493 209.783 55.892C208.924 54.7347 208.29 53.5027 207.879 52.196C207.468 50.8893 207.198 49.6573 207.067 48.5C206.955 47.324 206.899 46.372 206.899 45.644V28.76H213.731V43.32C213.731 44.2533 213.796 45.308 213.927 46.484C214.058 47.6413 214.356 48.7613 214.823 49.844C215.308 50.908 216.018 51.7853 216.951 52.476C217.903 53.1667 219.182 53.512 220.787 53.512C221.646 53.512 222.495 53.372 223.335 53.092C224.175 52.812 224.931 52.336 225.603 51.664C226.294 50.9733 226.844 50.0307 227.255 48.836C227.666 47.6413 227.871 46.1293 227.871 44.3L231.875 46.008C231.875 48.584 231.371 50.9173 230.363 53.008C229.374 55.0987 227.908 56.7693 225.967 58.02C224.026 59.252 221.636 59.868 218.799 59.868ZM228.683 59V49.62H227.871V28.76H234.647V59H228.683ZM242.514 59V28.76H248.478V36.124L247.75 35.172C248.123 34.164 248.618 33.2493 249.234 32.428C249.868 31.588 250.624 30.8973 251.502 30.356C252.248 29.852 253.07 29.46 253.966 29.18C254.88 28.8813 255.814 28.704 256.766 28.648C257.718 28.5733 258.642 28.6107 259.538 28.76V35.06C258.642 34.7987 257.606 34.7147 256.43 34.808C255.272 34.9013 254.227 35.228 253.294 35.788C252.36 36.292 251.595 36.936 250.998 37.72C250.419 38.504 249.99 39.4 249.71 40.408C249.43 41.3973 249.29 42.4707 249.29 43.628V59H242.514ZM285.797 59V44.44C285.797 43.488 285.732 42.4333 285.601 41.276C285.47 40.1187 285.162 39.008 284.677 37.944C284.21 36.8613 283.501 35.9747 282.549 35.284C281.616 34.5933 280.346 34.248 278.741 34.248C277.882 34.248 277.033 34.388 276.193 34.668C275.353 34.948 274.588 35.4333 273.897 36.124C273.225 36.796 272.684 37.7293 272.273 38.924C271.862 40.1 271.657 41.612 271.657 43.46L267.653 41.752C267.653 39.176 268.148 36.8427 269.137 34.752C270.145 32.6613 271.62 31 273.561 29.768C275.502 28.5173 277.892 27.892 280.729 27.892C282.969 27.892 284.817 28.2653 286.273 29.012C287.729 29.7587 288.886 30.7107 289.745 31.868C290.604 33.0253 291.238 34.2573 291.649 35.564C292.06 36.8707 292.321 38.112 292.433 39.288C292.564 40.4453 292.629 41.388 292.629 42.116V59H285.797ZM264.825 59V28.76H270.845V38.14H271.657V59H264.825ZM313.191 59.84C310.13 59.84 307.442 59.1773 305.127 57.852C302.813 56.5267 301.002 54.688 299.695 52.336C298.407 49.984 297.763 47.2773 297.763 44.216C297.763 40.912 298.398 38.0467 299.667 35.62C300.937 33.1747 302.701 31.28 304.959 29.936C307.218 28.592 309.831 27.92 312.799 27.92C315.935 27.92 318.595 28.6573 320.779 30.132C322.982 31.588 324.615 33.6507 325.679 36.32C326.743 38.9893 327.145 42.1347 326.883 45.756H320.191V43.292C320.173 40.0067 319.594 37.608 318.455 36.096C317.317 34.584 315.525 33.828 313.079 33.828C310.317 33.828 308.263 34.6867 306.919 36.404C305.575 38.1027 304.903 40.5947 304.903 43.88C304.903 46.9413 305.575 49.312 306.919 50.992C308.263 52.672 310.223 53.512 312.799 53.512C314.461 53.512 315.889 53.148 317.083 52.42C318.297 51.6733 319.23 50.6 319.883 49.2L326.547 51.216C325.39 53.9413 323.598 56.06 321.171 57.572C318.763 59.084 316.103 59.84 313.191 59.84ZM302.775 45.756V40.66H323.579V45.756H302.775ZM336.56 72.44L342.384 56.452L342.496 61.156L329.308 28.76H336.336L345.688 52.728H343.896L352.996 28.76H359.744L342.888 72.44H336.56ZM375.131 59V18.68H381.207L395.151 47.24L409.095 18.68H415.171V59H408.871V33.156L396.495 59H393.807L381.459 33.156V59H375.131ZM431.493 59.84C429.309 59.84 427.461 59.4293 425.949 58.608C424.437 57.768 423.289 56.6573 422.505 55.276C421.74 53.8947 421.357 52.3733 421.357 50.712C421.357 49.256 421.6 47.9493 422.085 46.792C422.571 45.616 423.317 44.608 424.325 43.768C425.333 42.9093 426.64 42.2093 428.245 41.668C429.459 41.276 430.877 40.9213 432.501 40.604C434.144 40.2867 435.917 39.9973 437.821 39.736C439.744 39.456 441.751 39.1573 443.841 38.84L441.433 40.212C441.452 38.1213 440.985 36.5813 440.033 35.592C439.081 34.6027 437.476 34.108 435.217 34.108C433.855 34.108 432.539 34.4253 431.269 35.06C430 35.6947 429.113 36.7867 428.609 38.336L422.449 36.404C423.196 33.8467 424.615 31.7933 426.705 30.244C428.815 28.6947 431.652 27.92 435.217 27.92C437.905 27.92 440.267 28.3587 442.301 29.236C444.355 30.1133 445.876 31.5507 446.865 33.548C447.407 34.612 447.733 35.704 447.845 36.824C447.957 37.9253 448.013 39.1293 448.013 40.436V59H442.105V52.448L443.085 53.512C441.723 55.696 440.127 57.3013 438.297 58.328C436.487 59.336 434.219 59.84 431.493 59.84ZM432.837 54.464C434.368 54.464 435.675 54.1933 436.757 53.652C437.84 53.1107 438.699 52.448 439.333 51.664C439.987 50.88 440.425 50.1427 440.649 49.452C441.004 48.5933 441.2 47.6133 441.237 46.512C441.293 45.392 441.321 44.4867 441.321 43.796L443.393 44.412C441.359 44.7293 439.613 45.0093 438.157 45.252C436.701 45.4947 435.451 45.728 434.405 45.952C433.36 46.1573 432.436 46.3907 431.633 46.652C430.849 46.932 430.187 47.2587 429.645 47.632C429.104 48.0053 428.684 48.4347 428.385 48.92C428.105 49.4053 427.965 49.9747 427.965 50.628C427.965 51.3747 428.152 52.0373 428.525 52.616C428.899 53.176 429.44 53.624 430.149 53.96C430.877 54.296 431.773 54.464 432.837 54.464ZM469.835 59.84C466.885 59.84 464.412 59.14 462.415 57.74C460.417 56.34 458.915 54.436 457.907 52.028C456.899 49.6013 456.395 46.8853 456.395 43.88C456.395 40.8373 456.899 38.112 457.907 35.704C458.915 33.296 460.389 31.4013 462.331 30.02C464.291 28.62 466.708 27.92 469.583 27.92C472.439 27.92 474.912 28.62 477.003 30.02C479.112 31.4013 480.745 33.296 481.903 35.704C483.06 38.0933 483.639 40.8187 483.639 43.88C483.639 46.904 483.069 49.62 481.931 52.028C480.792 54.436 479.187 56.34 477.115 57.74C475.043 59.14 472.616 59.84 469.835 59.84ZM455.247 72.44V28.76H461.211V49.984H462.051V72.44H455.247ZM468.799 53.792C470.553 53.792 472 53.3533 473.139 52.476C474.277 51.5987 475.117 50.4133 475.659 48.92C476.219 47.408 476.499 45.728 476.499 43.88C476.499 42.0507 476.219 40.3893 475.659 38.896C475.099 37.384 474.231 36.1893 473.055 35.312C471.879 34.416 470.385 33.968 468.575 33.968C466.857 33.968 465.457 34.388 464.375 35.228C463.292 36.0493 462.489 37.2067 461.967 38.7C461.463 40.1747 461.211 41.9013 461.211 43.88C461.211 45.84 461.463 47.5667 461.967 49.06C462.489 50.5533 463.301 51.72 464.403 52.56C465.523 53.3813 466.988 53.792 468.799 53.792ZM504.343 59.84C501.393 59.84 498.92 59.14 496.923 57.74C494.925 56.34 493.423 54.436 492.415 52.028C491.407 49.6013 490.903 46.8853 490.903 43.88C490.903 40.8373 491.407 38.112 492.415 35.704C493.423 33.296 494.897 31.4013 496.839 30.02C498.799 28.62 501.216 27.92 504.091 27.92C506.947 27.92 509.42 28.62 511.511 30.02C513.62 31.4013 515.253 33.296 516.411 35.704C517.568 38.0933 518.147 40.8187 518.147 43.88C518.147 46.904 517.577 49.62 516.439 52.028C515.3 54.436 513.695 56.34 511.623 57.74C509.551 59.14 507.124 59.84 504.343 59.84ZM489.755 72.44V28.76H495.719V49.984H496.559V72.44H489.755ZM503.307 53.792C505.061 53.792 506.508 53.3533 507.647 52.476C508.785 51.5987 509.625 50.4133 510.167 48.92C510.727 47.408 511.007 45.728 511.007 43.88C511.007 42.0507 510.727 40.3893 510.167 38.896C509.607 37.384 508.739 36.1893 507.563 35.312C506.387 34.416 504.893 33.968 503.083 33.968C501.365 33.968 499.965 34.388 498.883 35.228C497.8 36.0493 496.997 37.2067 496.475 38.7C495.971 40.1747 495.719 41.9013 495.719 43.88C495.719 45.84 495.971 47.5667 496.475 49.06C496.997 50.5533 497.809 51.72 498.911 52.56C500.031 53.3813 501.496 53.792 503.307 53.792ZM524.878 24.168V17.98H531.626V24.168H524.878ZM524.878 59V28.76H531.626V59H524.878ZM560.93 59V44.44C560.93 43.488 560.864 42.4333 560.734 41.276C560.603 40.1187 560.295 39.008 559.81 37.944C559.343 36.8613 558.634 35.9747 557.682 35.284C556.748 34.5933 555.479 34.248 553.874 34.248C553.015 34.248 552.166 34.388 551.326 34.668C550.486 34.948 549.72 35.4333 549.03 36.124C548.358 36.796 547.816 37.7293 547.406 38.924C546.995 40.1 546.79 41.612 546.79 43.46L542.786 41.752C542.786 39.176 543.28 36.8427 544.27 34.752C545.278 32.6613 546.752 31 548.694 29.768C550.635 28.5173 553.024 27.892 555.862 27.892C558.102 27.892 559.95 28.2653 561.406 29.012C562.862 29.7587 564.019 30.7107 564.878 31.868C565.736 33.0253 566.371 34.2573 566.782 35.564C567.192 36.8707 567.454 38.112 567.566 39.288C567.696 40.4453 567.762 41.388 567.762 42.116V59H560.93ZM539.958 59V28.76H545.978V38.14H546.79V59H539.958ZM587.78 73.28C586.1 73.28 584.486 73.0187 582.936 72.496C581.406 71.9733 580.024 71.2173 578.792 70.228C577.56 69.2573 576.552 68.0813 575.768 66.7L581.984 63.62C582.563 64.7213 583.375 65.5333 584.42 66.056C585.484 66.5973 586.614 66.868 587.808 66.868C589.208 66.868 590.459 66.616 591.56 66.112C592.662 65.6267 593.511 64.8987 594.108 63.928C594.724 62.976 595.014 61.7813 594.976 60.344V51.748H595.816V28.76H601.724V60.456C601.724 61.2213 601.687 61.9493 601.612 62.64C601.556 63.3493 601.454 64.04 601.304 64.712C600.856 66.672 599.998 68.2773 598.728 69.528C597.459 70.7973 595.882 71.74 593.996 72.356C592.13 72.972 590.058 73.28 587.78 73.28ZM587.192 59.84C584.411 59.84 581.984 59.14 579.912 57.74C577.84 56.34 576.235 54.436 575.096 52.028C573.958 49.62 573.388 46.904 573.388 43.88C573.388 40.8187 573.958 38.0933 575.096 35.704C576.254 33.296 577.887 31.4013 579.996 30.02C582.106 28.62 584.588 27.92 587.444 27.92C590.319 27.92 592.727 28.62 594.668 30.02C596.628 31.4013 598.112 33.296 599.12 35.704C600.128 38.112 600.632 40.8373 600.632 43.88C600.632 46.8853 600.128 49.6013 599.12 52.028C598.112 54.436 596.61 56.34 594.612 57.74C592.615 59.14 590.142 59.84 587.192 59.84ZM588.228 53.792C590.039 53.792 591.495 53.3813 592.596 52.56C593.716 51.72 594.528 50.5533 595.032 49.06C595.555 47.5667 595.816 45.84 595.816 43.88C595.816 41.9013 595.555 40.1747 595.032 38.7C594.528 37.2067 593.735 36.0493 592.652 35.228C591.57 34.388 590.17 33.968 588.452 33.968C586.642 33.968 585.148 34.416 583.972 35.312C582.796 36.1893 581.928 37.384 581.368 38.896C580.808 40.3893 580.528 42.0507 580.528 43.88C580.528 45.728 580.799 47.408 581.34 48.92C581.9 50.4133 582.75 51.5987 583.888 52.476C585.027 53.3533 586.474 53.792 588.228 53.792Z" fill="#13151A"/>
<path d="M3 84H215" stroke="#47A7D0" stroke-width="6" stroke-linecap="round"/>
</svg>
