<svg width="1440" height="573" viewBox="0 0 1440 573" fill="none" xmlns="http://www.w3.org/2000/svg">
<path d="M48.608 59V25.008H35.56V18.68H68.404V25.008H55.356V59H48.608ZM72.9194 72.44L78.7434 56.452L78.8554 61.156L65.6674 28.76H72.6954L82.0474 52.728H80.2554L89.3554 28.76H96.1034L79.2474 72.44H72.9194ZM114.811 59.84C111.862 59.84 109.389 59.14 107.391 57.74C105.394 56.34 103.891 54.436 102.883 52.028C101.875 49.6013 101.371 46.8853 101.371 43.88C101.371 40.8373 101.875 38.112 102.883 35.704C103.891 33.296 105.366 31.4013 107.307 30.02C109.267 28.62 111.685 27.92 114.559 27.92C117.415 27.92 119.889 28.62 121.979 30.02C124.089 31.4013 125.722 33.296 126.879 35.704C128.037 38.0933 128.615 40.8187 128.615 43.88C128.615 46.904 128.046 49.62 126.907 52.028C125.769 54.436 124.163 56.34 122.091 57.74C120.019 59.14 117.593 59.84 114.811 59.84ZM100.223 72.44V28.76H106.187V49.984H107.027V72.44H100.223ZM113.775 53.792C115.53 53.792 116.977 53.3533 118.115 52.476C119.254 51.5987 120.094 50.4133 120.635 48.92C121.195 47.408 121.475 45.728 121.475 43.88C121.475 42.0507 121.195 40.3893 120.635 38.896C120.075 37.384 119.207 36.1893 118.031 35.312C116.855 34.416 115.362 33.968 113.551 33.968C111.834 33.968 110.434 34.388 109.351 35.228C108.269 36.0493 107.466 37.2067 106.943 38.7C106.439 40.1747 106.187 41.9013 106.187 43.88C106.187 45.84 106.439 47.5667 106.943 49.06C107.466 50.5533 108.278 51.72 109.379 52.56C110.499 53.3813 111.965 53.792 113.775 53.792ZM148.143 59.84C145.119 59.84 142.478 59.1587 140.219 57.796C137.961 56.4333 136.206 54.5573 134.955 52.168C133.723 49.76 133.107 46.9973 133.107 43.88C133.107 40.7067 133.742 37.9253 135.011 35.536C136.281 33.1467 138.045 31.28 140.303 29.936C142.562 28.592 145.175 27.92 148.143 27.92C151.186 27.92 153.837 28.6013 156.095 29.964C158.354 31.3267 160.109 33.212 161.359 35.62C162.61 38.0093 163.235 40.7627 163.235 43.88C163.235 47.016 162.601 49.788 161.331 52.196C160.081 54.5853 158.326 56.4613 156.067 57.824C153.809 59.168 151.167 59.84 148.143 59.84ZM148.143 53.512C150.831 53.512 152.829 52.616 154.135 50.824C155.442 49.032 156.095 46.7173 156.095 43.88C156.095 40.9493 155.433 38.616 154.107 36.88C152.782 35.1253 150.794 34.248 148.143 34.248C146.333 34.248 144.839 34.6587 143.663 35.48C142.506 36.2827 141.647 37.412 141.087 38.868C140.527 40.3053 140.247 41.976 140.247 43.88C140.247 46.8107 140.91 49.1533 142.235 50.908C143.579 52.644 145.549 53.512 148.143 53.512ZM182.116 73.28C180.436 73.28 178.822 73.0187 177.272 72.496C175.742 71.9733 174.36 71.2173 173.128 70.228C171.896 69.2573 170.888 68.0813 170.104 66.7L176.32 63.62C176.899 64.7213 177.711 65.5333 178.756 66.056C179.82 66.5973 180.95 66.868 182.144 66.868C183.544 66.868 184.795 66.616 185.896 66.112C186.998 65.6267 187.847 64.8987 188.444 63.928C189.06 62.976 189.35 61.7813 189.312 60.344V51.748H190.152V28.76H196.06V60.456C196.06 61.2213 196.023 61.9493 195.948 62.64C195.892 63.3493 195.79 64.04 195.64 64.712C195.192 66.672 194.334 68.2773 193.064 69.528C191.795 70.7973 190.218 71.74 188.332 72.356C186.466 72.972 184.394 73.28 182.116 73.28ZM181.528 59.84C178.747 59.84 176.32 59.14 174.248 57.74C172.176 56.34 170.571 54.436 169.432 52.028C168.294 49.62 167.724 46.904 167.724 43.88C167.724 40.8187 168.294 38.0933 169.432 35.704C170.59 33.296 172.223 31.4013 174.332 30.02C176.442 28.62 178.924 27.92 181.78 27.92C184.655 27.92 187.063 28.62 189.004 30.02C190.964 31.4013 192.448 33.296 193.456 35.704C194.464 38.112 194.968 40.8373 194.968 43.88C194.968 46.8853 194.464 49.6013 193.456 52.028C192.448 54.436 190.946 56.34 188.948 57.74C186.951 59.14 184.478 59.84 181.528 59.84ZM182.564 53.792C184.375 53.792 185.831 53.3813 186.932 52.56C188.052 51.72 188.864 50.5533 189.368 49.06C189.891 47.5667 190.152 45.84 190.152 43.88C190.152 41.9013 189.891 40.1747 189.368 38.7C188.864 37.2067 188.071 36.0493 186.988 35.228C185.906 34.388 184.506 33.968 182.788 33.968C180.978 33.968 179.484 34.416 178.308 35.312C177.132 36.1893 176.264 37.384 175.704 38.896C175.144 40.3893 174.864 42.0507 174.864 43.88C174.864 45.728 175.135 47.408 175.676 48.92C176.236 50.4133 177.086 51.5987 178.224 52.476C179.363 53.3533 180.81 53.792 182.564 53.792ZM203.912 59V28.76H209.876V36.124L209.148 35.172C209.522 34.164 210.016 33.2493 210.632 32.428C211.267 31.588 212.023 30.8973 212.9 30.356C213.647 29.852 214.468 29.46 215.364 29.18C216.279 28.8813 217.212 28.704 218.164 28.648C219.116 28.5733 220.04 28.6107 220.936 28.76V35.06C220.04 34.7987 219.004 34.7147 217.828 34.808C216.671 34.9013 215.626 35.228 214.692 35.788C213.759 36.292 212.994 36.936 212.396 37.72C211.818 38.504 211.388 39.4 211.108 40.408C210.828 41.3973 210.688 42.4707 210.688 43.628V59H203.912ZM234.024 59.84C231.84 59.84 229.992 59.4293 228.48 58.608C226.968 57.768 225.82 56.6573 225.036 55.276C224.271 53.8947 223.888 52.3733 223.888 50.712C223.888 49.256 224.131 47.9493 224.616 46.792C225.102 45.616 225.848 44.608 226.856 43.768C227.864 42.9093 229.171 42.2093 230.776 41.668C231.99 41.276 233.408 40.9213 235.032 40.604C236.675 40.2867 238.448 39.9973 240.352 39.736C242.275 39.456 244.282 39.1573 246.372 38.84L243.964 40.212C243.983 38.1213 243.516 36.5813 242.564 35.592C241.612 34.6027 240.007 34.108 237.748 34.108C236.386 34.108 235.07 34.4253 233.8 35.06C232.531 35.6947 231.644 36.7867 231.14 38.336L224.98 36.404C225.727 33.8467 227.146 31.7933 229.236 30.244C231.346 28.6947 234.183 27.92 237.748 27.92C240.436 27.92 242.798 28.3587 244.832 29.236C246.886 30.1133 248.407 31.5507 249.396 33.548C249.938 34.612 250.264 35.704 250.376 36.824C250.488 37.9253 250.544 39.1293 250.544 40.436V59H244.636V52.448L245.616 53.512C244.254 55.696 242.658 57.3013 240.828 58.328C239.018 59.336 236.75 59.84 234.024 59.84ZM235.368 54.464C236.899 54.464 238.206 54.1933 239.288 53.652C240.371 53.1107 241.23 52.448 241.864 51.664C242.518 50.88 242.956 50.1427 243.18 49.452C243.535 48.5933 243.731 47.6133 243.768 46.512C243.824 45.392 243.852 44.4867 243.852 43.796L245.924 44.412C243.89 44.7293 242.144 45.0093 240.688 45.252C239.232 45.4947 237.982 45.728 236.936 45.952C235.891 46.1573 234.967 46.3907 234.164 46.652C233.38 46.932 232.718 47.2587 232.176 47.632C231.635 48.0053 231.215 48.4347 230.916 48.92C230.636 49.4053 230.496 49.9747 230.496 50.628C230.496 51.3747 230.683 52.0373 231.056 52.616C231.43 53.176 231.971 53.624 232.68 53.96C233.408 54.296 234.304 54.464 235.368 54.464ZM272.366 59.84C269.417 59.84 266.943 59.14 264.946 57.74C262.949 56.34 261.446 54.436 260.438 52.028C259.43 49.6013 258.926 46.8853 258.926 43.88C258.926 40.8373 259.43 38.112 260.438 35.704C261.446 33.296 262.921 31.4013 264.862 30.02C266.822 28.62 269.239 27.92 272.114 27.92C274.97 27.92 277.443 28.62 279.534 30.02C281.643 31.4013 283.277 33.296 284.434 35.704C285.591 38.0933 286.17 40.8187 286.17 43.88C286.17 46.904 285.601 49.62 284.462 52.028C283.323 54.436 281.718 56.34 279.646 57.74C277.574 59.14 275.147 59.84 272.366 59.84ZM257.778 72.44V28.76H263.742V49.984H264.582V72.44H257.778ZM271.33 53.792C273.085 53.792 274.531 53.3533 275.67 52.476C276.809 51.5987 277.649 50.4133 278.19 48.92C278.75 47.408 279.03 45.728 279.03 43.88C279.03 42.0507 278.75 40.3893 278.19 38.896C277.63 37.384 276.762 36.1893 275.586 35.312C274.41 34.416 272.917 33.968 271.106 33.968C269.389 33.968 267.989 34.388 266.906 35.228C265.823 36.0493 265.021 37.2067 264.498 38.7C263.994 40.1747 263.742 41.9013 263.742 43.88C263.742 45.84 263.994 47.5667 264.498 49.06C265.021 50.5533 265.833 51.72 266.934 52.56C268.054 53.3813 269.519 53.792 271.33 53.792ZM313.258 59V44.44C313.258 43.488 313.193 42.4333 313.062 41.276C312.931 40.1187 312.623 39.008 312.138 37.944C311.671 36.8613 310.962 35.9747 310.01 35.284C309.077 34.5933 307.807 34.248 306.202 34.248C305.343 34.248 304.494 34.388 303.654 34.668C302.814 34.948 302.049 35.4333 301.358 36.124C300.686 36.796 300.145 37.7293 299.734 38.924C299.323 40.1 299.118 41.612 299.118 43.46L295.114 41.752C295.114 39.176 295.609 36.8427 296.598 34.752C297.606 32.6613 299.081 31 301.022 29.768C302.963 28.5173 305.353 27.892 308.19 27.892C310.43 27.892 312.278 28.2653 313.734 29.012C315.19 29.7587 316.347 30.7107 317.206 31.868C318.065 33.0253 318.699 34.2573 319.11 35.564C319.521 36.8707 319.782 38.112 319.894 39.288C320.025 40.4453 320.09 41.388 320.09 42.116V59H313.258ZM292.286 59V18.68H298.306V39.904H299.118V59H292.286ZM331.373 72.44L337.197 56.452L337.309 61.156L324.121 28.76H331.149L340.501 52.728H338.709L347.809 28.76H354.557L337.701 72.44H331.373Z" fill="#13151A"/>
<path d="M35 84H162" stroke="#47A7D0" stroke-width="6" stroke-linecap="round"/>
<path d="M30.1636 532.153L197.824 155.991H283.804L452.002 532.153H360.648L223.081 200.056H257.473L119.368 532.153H30.1636ZM113.994 451.547L137.101 385.45H330.555L354.2 451.547H113.994ZM662.451 532.153V475.729L657.077 463.369V362.343C657.077 344.43 651.524 330.459 640.418 320.428C629.671 310.397 613.012 305.381 590.443 305.381C575.038 305.381 559.812 307.889 544.766 312.904C530.078 317.562 517.539 324.01 507.15 332.25L477.057 273.676C492.82 262.571 511.807 253.973 534.018 247.882C556.23 241.792 578.799 238.747 601.727 238.747C645.792 238.747 680.005 249.136 704.366 269.915C728.727 290.693 740.907 323.115 740.907 367.179V532.153H662.451ZM574.321 536.452C551.752 536.452 532.406 532.69 516.285 525.167C500.164 517.286 487.804 506.717 479.206 493.462C470.608 480.207 466.309 465.339 466.309 448.86C466.309 431.664 470.429 416.618 478.669 403.721C487.267 390.824 500.701 380.793 518.972 373.628C537.243 366.104 561.066 362.343 590.443 362.343H667.287V411.244H599.578C579.874 411.244 566.261 414.468 558.738 420.917C551.573 427.365 547.99 435.426 547.99 445.098C547.99 455.846 552.11 464.444 560.35 470.892C568.948 476.982 580.591 480.028 595.279 480.028C609.251 480.028 621.789 476.803 632.895 470.355C644.001 463.548 652.061 453.696 657.077 440.799L669.974 479.49C663.884 498.119 652.778 512.27 636.657 521.943C620.535 531.615 599.757 536.452 574.321 536.452Z" fill="#2E2E2E"/>
<path d="M974.098 295.193V241.456H984.385L1007.26 279.379H1001.81L1024.3 241.456H1034.51L1034.67 295.193H1023L1022.92 259.342H1025.07L1007.11 289.512H1001.5L983.157 259.342H985.767V295.193H974.098ZM1066.23 295.807C1061.82 295.807 1057.91 294.886 1054.48 293.043C1051.1 291.201 1048.42 288.693 1046.42 285.52C1044.47 282.296 1043.5 278.637 1043.5 274.542C1043.5 270.397 1044.47 266.738 1046.42 263.565C1048.42 260.34 1051.1 257.833 1054.48 256.041C1057.91 254.199 1061.82 253.278 1066.23 253.278C1070.58 253.278 1074.47 254.199 1077.89 256.041C1081.32 257.833 1084.01 260.315 1085.95 263.488C1087.9 266.661 1088.87 270.346 1088.87 274.542C1088.87 278.637 1087.9 282.296 1085.95 285.52C1084.01 288.693 1081.32 291.201 1077.89 293.043C1074.47 294.886 1070.58 295.807 1066.23 295.807ZM1066.23 285.981C1068.22 285.981 1070.01 285.52 1071.6 284.599C1073.19 283.678 1074.44 282.373 1075.36 280.684C1076.28 278.944 1076.74 276.897 1076.74 274.542C1076.74 272.137 1076.28 270.09 1075.36 268.401C1074.44 266.712 1073.19 265.407 1071.6 264.486C1070.01 263.565 1068.22 263.104 1066.23 263.104C1064.23 263.104 1062.44 263.565 1060.85 264.486C1059.27 265.407 1057.99 266.712 1057.01 268.401C1056.09 270.09 1055.63 272.137 1055.63 274.542C1055.63 276.897 1056.09 278.944 1057.01 280.684C1057.99 282.373 1059.27 283.678 1060.85 284.599C1062.44 285.52 1064.23 285.981 1066.23 285.981ZM1121.98 253.278C1125.26 253.278 1128.17 253.943 1130.73 255.274C1133.34 256.553 1135.39 258.549 1136.87 261.262C1138.36 263.923 1139.1 267.352 1139.1 271.548V295.193H1127.12V273.391C1127.12 270.064 1126.38 267.608 1124.9 266.021C1123.46 264.435 1121.42 263.641 1118.76 263.641C1116.86 263.641 1115.15 264.051 1113.61 264.87C1112.13 265.637 1110.95 266.84 1110.08 268.478C1109.26 270.115 1108.85 272.214 1108.85 274.773V295.193H1096.88V253.892H1108.32V265.33L1106.17 261.876C1107.65 259.112 1109.77 256.988 1112.54 255.504C1115.3 254.02 1118.45 253.278 1121.98 253.278ZM1166.84 295.807C1161.98 295.807 1158.19 294.579 1155.48 292.122C1152.77 289.614 1151.41 285.904 1151.41 280.991V244.757H1163.39V280.837C1163.39 282.577 1163.85 283.934 1164.77 284.906C1165.69 285.827 1166.95 286.288 1168.53 286.288C1170.43 286.288 1172.04 285.776 1173.37 284.752L1176.59 293.197C1175.36 294.067 1173.88 294.732 1172.14 295.193C1170.45 295.602 1168.69 295.807 1166.84 295.807ZM1145.04 264.025V254.813H1173.68V264.025H1145.04ZM1197.21 295.807C1193.68 295.807 1190.28 295.398 1187 294.579C1183.78 293.709 1181.22 292.634 1179.32 291.354L1183.32 282.757C1185.21 283.934 1187.44 284.906 1189.99 285.674C1192.6 286.39 1195.16 286.748 1197.67 286.748C1200.43 286.748 1202.38 286.416 1203.51 285.75C1204.68 285.085 1205.27 284.164 1205.27 282.987C1205.27 282.014 1204.81 281.298 1203.89 280.837C1203.02 280.326 1201.84 279.942 1200.36 279.686C1198.87 279.43 1197.24 279.174 1195.44 278.918C1193.7 278.662 1191.94 278.33 1190.15 277.92C1188.36 277.46 1186.72 276.794 1185.23 275.924C1183.75 275.054 1182.55 273.877 1181.63 272.393C1180.76 270.909 1180.32 268.99 1180.32 266.635C1180.32 264.025 1181.06 261.722 1182.55 259.726C1184.08 257.73 1186.28 256.169 1189.15 255.043C1192.02 253.866 1195.44 253.278 1199.44 253.278C1202.25 253.278 1205.12 253.585 1208.03 254.199C1210.95 254.813 1213.38 255.709 1215.33 256.886L1211.34 265.407C1209.34 264.23 1207.32 263.437 1205.27 263.027C1203.27 262.567 1201.33 262.336 1199.44 262.336C1196.78 262.336 1194.83 262.695 1193.6 263.411C1192.37 264.128 1191.76 265.049 1191.76 266.175C1191.76 267.198 1192.19 267.966 1193.06 268.478C1193.99 268.99 1195.19 269.399 1196.67 269.706C1198.16 270.013 1199.77 270.295 1201.51 270.55C1203.3 270.755 1205.09 271.088 1206.88 271.548C1208.67 272.009 1210.29 272.674 1211.72 273.544C1213.2 274.363 1214.41 275.515 1215.33 276.999C1216.25 278.432 1216.71 280.326 1216.71 282.68C1216.71 285.239 1215.94 287.516 1214.41 289.512C1212.87 291.457 1210.64 292.992 1207.73 294.118C1204.86 295.244 1201.36 295.807 1197.21 295.807ZM1244.59 295.807C1239.89 295.807 1235.74 294.886 1232.16 293.043C1228.63 291.201 1225.89 288.693 1223.94 285.52C1222 282.296 1221.03 278.637 1221.03 274.542C1221.03 270.397 1221.97 266.738 1223.87 263.565C1225.81 260.34 1228.45 257.833 1231.77 256.041C1235.1 254.199 1238.86 253.278 1243.06 253.278C1247.1 253.278 1250.74 254.148 1253.96 255.888C1257.24 257.577 1259.82 260.033 1261.71 263.258C1263.61 266.431 1264.55 270.243 1264.55 274.696C1264.55 275.157 1264.53 275.694 1264.48 276.308C1264.43 276.871 1264.38 277.408 1264.32 277.92H1230.78V270.934H1258.03L1253.42 273.007C1253.42 270.858 1252.99 268.99 1252.12 267.403C1251.25 265.816 1250.05 264.588 1248.51 263.718C1246.97 262.797 1245.18 262.336 1243.14 262.336C1241.09 262.336 1239.27 262.797 1237.69 263.718C1236.15 264.588 1234.95 265.842 1234.08 267.48C1233.21 269.066 1232.77 270.96 1232.77 273.161V275.003C1232.77 277.255 1233.26 279.251 1234.23 280.991C1235.25 282.68 1236.66 283.985 1238.45 284.906C1240.3 285.776 1242.45 286.211 1244.9 286.211C1247.1 286.211 1249.02 285.878 1250.66 285.213C1252.35 284.548 1253.88 283.55 1255.27 282.219L1261.64 289.128C1259.74 291.278 1257.36 292.941 1254.5 294.118C1251.63 295.244 1248.33 295.807 1244.59 295.807ZM1272.53 295.193V253.892H1283.97V265.561L1282.35 262.183C1283.58 259.266 1285.55 257.065 1288.26 255.581C1290.98 254.045 1294.28 253.278 1298.17 253.278V264.332C1297.66 264.281 1297.2 264.256 1296.79 264.256C1296.38 264.204 1295.94 264.179 1295.48 264.179C1292.21 264.179 1289.54 265.126 1287.5 267.019C1285.5 268.862 1284.5 271.753 1284.5 275.694V295.193H1272.53ZM1305.36 295.193V253.892H1316.8V265.561L1315.19 262.183C1316.42 259.266 1318.39 257.065 1321.1 255.581C1323.81 254.045 1327.11 253.278 1331 253.278V264.332C1330.49 264.281 1330.03 264.256 1329.62 264.256C1329.21 264.204 1328.78 264.179 1328.32 264.179C1325.04 264.179 1322.38 265.126 1320.33 267.019C1318.34 268.862 1317.34 271.753 1317.34 275.694V295.193H1305.36ZM1360.76 295.193V287.132L1359.99 285.367V270.934C1359.99 268.375 1359.2 266.379 1357.61 264.946C1356.08 263.513 1353.7 262.797 1350.47 262.797C1348.27 262.797 1346.1 263.155 1343.95 263.872C1341.85 264.537 1340.06 265.458 1338.57 266.635L1334.27 258.268C1336.53 256.681 1339.24 255.453 1342.41 254.583C1345.58 253.713 1348.81 253.278 1352.08 253.278C1358.38 253.278 1363.27 254.762 1366.75 257.73C1370.23 260.699 1371.97 265.33 1371.97 271.625V295.193H1360.76ZM1348.17 295.807C1344.95 295.807 1342.18 295.27 1339.88 294.195C1337.58 293.069 1335.81 291.559 1334.58 289.666C1333.35 287.772 1332.74 285.648 1332.74 283.294C1332.74 280.837 1333.33 278.688 1334.5 276.845C1335.73 275.003 1337.65 273.57 1340.26 272.546C1342.87 271.472 1346.28 270.934 1350.47 270.934H1361.45V277.92H1351.78C1348.96 277.92 1347.02 278.381 1345.94 279.302C1344.92 280.223 1344.41 281.375 1344.41 282.757C1344.41 284.292 1345 285.52 1346.17 286.441C1347.4 287.311 1349.07 287.746 1351.16 287.746C1353.16 287.746 1354.95 287.286 1356.54 286.365C1358.12 285.392 1359.28 283.985 1359.99 282.142L1361.83 287.67C1360.96 290.331 1359.38 292.352 1357.07 293.734C1354.77 295.116 1351.8 295.807 1348.17 295.807ZM1399.69 295.807C1394.83 295.807 1391.05 294.579 1388.33 292.122C1385.62 289.614 1384.26 285.904 1384.26 280.991V244.757H1396.24V280.837C1396.24 282.577 1396.7 283.934 1397.62 284.906C1398.54 285.827 1399.8 286.288 1401.38 286.288C1403.28 286.288 1404.89 285.776 1406.22 284.752L1409.44 293.197C1408.22 294.067 1406.73 294.732 1404.99 295.193C1403.3 295.602 1401.54 295.807 1399.69 295.807ZM1377.89 264.025V254.813H1406.53V264.025H1377.89Z" fill="#2E2E2E"/>
<path d="M971.757 362.365V335.496H982.236C984.59 335.496 986.599 335.867 988.262 336.609C989.925 337.351 991.205 338.426 992.1 339.833C992.996 341.241 993.444 342.917 993.444 344.862C993.444 346.807 992.996 348.483 992.1 349.89C991.205 351.272 989.925 352.334 988.262 353.076C986.599 353.818 984.59 354.189 982.236 354.189H973.868L975.595 352.423V362.365H971.757ZM989.72 362.365L982.888 352.615H986.995L993.904 362.365H989.72ZM975.595 352.807L973.868 350.926H982.12C984.577 350.926 986.432 350.402 987.686 349.353C988.966 348.278 989.605 346.781 989.605 344.862C989.605 342.943 988.966 341.458 987.686 340.409C986.432 339.36 984.577 338.835 982.12 338.835H973.868L975.595 336.916V352.807ZM1008.17 362.595C1005.99 362.595 1004.07 362.147 1002.41 361.252C1000.77 360.356 999.492 359.128 998.57 357.567C997.675 356.006 997.227 354.215 997.227 352.193C997.227 350.171 997.662 348.38 998.532 346.819C999.428 345.258 1000.64 344.043 1002.18 343.173C1003.74 342.277 1005.49 341.829 1007.44 341.829C1009.41 341.829 1011.15 342.264 1012.66 343.134C1014.17 344.004 1015.34 345.233 1016.19 346.819C1017.06 348.38 1017.49 350.21 1017.49 352.308C1017.49 352.462 1017.48 352.641 1017.46 352.846C1017.46 353.05 1017.44 353.242 1017.42 353.421H1000.11V350.773H1015.5L1014 351.694C1014.03 350.389 1013.76 349.225 1013.19 348.201C1012.63 347.178 1011.85 346.384 1010.85 345.821C1009.88 345.233 1008.74 344.938 1007.44 344.938C1006.16 344.938 1005.02 345.233 1004.02 345.821C1003.02 346.384 1002.24 347.19 1001.68 348.24C1001.12 349.263 1000.83 350.44 1000.83 351.771V352.385C1000.83 353.741 1001.14 354.957 1001.76 356.031C1002.4 357.081 1003.28 357.899 1004.4 358.488C1005.53 359.077 1006.82 359.371 1008.28 359.371C1009.48 359.371 1010.57 359.166 1011.54 358.757C1012.54 358.347 1013.41 357.733 1014.15 356.914L1016.19 359.294C1015.27 360.369 1014.12 361.188 1012.73 361.751C1011.38 362.314 1009.86 362.595 1008.17 362.595ZM1031.52 370.042C1029.65 370.042 1027.83 369.773 1026.06 369.235C1024.32 368.724 1022.9 367.982 1021.8 367.009L1023.57 364.169C1024.52 364.988 1025.68 365.627 1027.06 366.088C1028.44 366.574 1029.89 366.817 1031.4 366.817C1033.81 366.817 1035.57 366.254 1036.7 365.128C1037.82 364.002 1038.39 362.288 1038.39 359.985V355.686L1038.77 351.656L1038.58 347.587V342.021H1042.07V359.601C1042.07 363.184 1041.18 365.819 1039.38 367.508C1037.59 369.197 1034.97 370.042 1031.52 370.042ZM1031.05 361.52C1029.08 361.52 1027.32 361.111 1025.76 360.292C1024.22 359.448 1022.99 358.283 1022.07 356.799C1021.18 355.315 1020.73 353.6 1020.73 351.656C1020.73 349.685 1021.18 347.971 1022.07 346.512C1022.99 345.028 1024.22 343.877 1025.76 343.058C1027.32 342.239 1029.08 341.829 1031.05 341.829C1032.79 341.829 1034.38 342.188 1035.81 342.904C1037.25 343.595 1038.39 344.67 1039.23 346.128C1040.1 347.587 1040.54 349.429 1040.54 351.656C1040.54 353.856 1040.1 355.686 1039.23 357.145C1038.39 358.603 1037.25 359.703 1035.81 360.446C1034.38 361.162 1032.79 361.52 1031.05 361.52ZM1031.48 358.296C1032.83 358.296 1034.04 358.015 1035.09 357.452C1036.13 356.889 1036.95 356.108 1037.54 355.11C1038.16 354.112 1038.46 352.961 1038.46 351.656C1038.46 350.351 1038.16 349.199 1037.54 348.201C1036.95 347.203 1036.13 346.435 1035.09 345.898C1034.04 345.335 1032.83 345.054 1031.48 345.054C1030.12 345.054 1028.91 345.335 1027.83 345.898C1026.78 346.435 1025.95 347.203 1025.34 348.201C1024.75 349.199 1024.45 350.351 1024.45 351.656C1024.45 352.961 1024.75 354.112 1025.34 355.11C1025.95 356.108 1026.78 356.889 1027.83 357.452C1028.91 358.015 1030.12 358.296 1031.48 358.296ZM1057.67 362.595C1055.93 362.595 1054.4 362.275 1053.07 361.635C1051.76 360.996 1050.74 360.023 1049.99 358.718C1049.28 357.388 1048.92 355.724 1048.92 353.728V342.021H1052.6V353.306C1052.6 355.302 1053.08 356.799 1054.02 357.797C1055 358.795 1056.35 359.294 1058.09 359.294C1059.37 359.294 1060.49 359.038 1061.43 358.526C1062.38 357.989 1063.11 357.221 1063.62 356.223C1064.13 355.2 1064.39 353.971 1064.39 352.538V342.021H1068.07V362.365H1064.58V356.876L1065.16 358.334C1064.49 359.691 1063.49 360.74 1062.16 361.482C1060.83 362.224 1059.33 362.595 1057.67 362.595ZM1075.09 362.365V333.884H1078.77V362.365H1075.09ZM1098.44 362.365V358.066L1098.25 357.26V349.928C1098.25 348.367 1097.78 347.165 1096.86 346.32C1095.97 345.45 1094.61 345.015 1092.79 345.015C1091.59 345.015 1090.41 345.22 1089.26 345.629C1088.11 346.013 1087.14 346.538 1086.35 347.203L1084.81 344.44C1085.86 343.595 1087.11 342.955 1088.57 342.52C1090.06 342.06 1091.6 341.829 1093.22 341.829C1096.01 341.829 1098.16 342.508 1099.67 343.864C1101.17 345.22 1101.93 347.293 1101.93 350.082V362.365H1098.44ZM1091.76 362.595C1090.25 362.595 1088.92 362.339 1087.77 361.827C1086.64 361.316 1085.77 360.612 1085.16 359.716C1084.54 358.795 1084.23 357.759 1084.23 356.607C1084.23 355.507 1084.49 354.509 1085 353.613C1085.54 352.718 1086.4 352.001 1087.57 351.464C1088.78 350.926 1090.39 350.658 1092.41 350.658H1098.86V353.306H1092.56C1090.72 353.306 1089.48 353.613 1088.84 354.227C1088.2 354.842 1087.88 355.584 1087.88 356.454C1087.88 357.452 1088.28 358.258 1089.07 358.872C1089.86 359.46 1090.96 359.755 1092.37 359.755C1093.75 359.755 1094.96 359.448 1095.98 358.833C1097.03 358.219 1097.78 357.324 1098.25 356.147L1098.97 358.68C1098.49 359.883 1097.63 360.842 1096.4 361.559C1095.17 362.25 1093.63 362.595 1091.76 362.595ZM1108.75 362.365V342.021H1112.28V347.549L1111.93 346.167C1112.5 344.759 1113.44 343.685 1114.78 342.943C1116.11 342.2 1117.74 341.829 1119.69 341.829V345.399C1119.53 345.374 1119.38 345.361 1119.23 345.361C1119.1 345.361 1118.97 345.361 1118.84 345.361C1116.87 345.361 1115.31 345.949 1114.16 347.126C1113.01 348.303 1112.43 350.005 1112.43 352.231V362.365H1108.75Z" fill="#2E2E2E"/>
<path d="M971.757 413.031V386.163H974.904L986.957 406.468H985.268L997.167 386.163H1000.31L1000.35 413.031H996.668L996.63 391.959H997.512L986.918 409.769H985.153L974.482 391.959H975.442V413.031H971.757ZM1016.94 413.262C1014.76 413.262 1012.84 412.814 1011.18 411.918C1009.54 411.022 1008.26 409.794 1007.34 408.233C1006.45 406.672 1006 404.881 1006 402.86C1006 400.838 1006.43 399.047 1007.3 397.486C1008.2 395.925 1009.41 394.709 1010.95 393.839C1012.51 392.944 1014.26 392.496 1016.21 392.496C1018.18 392.496 1019.92 392.931 1021.43 393.801C1022.94 394.671 1024.12 395.899 1024.96 397.486C1025.83 399.047 1026.26 400.876 1026.26 402.975C1026.26 403.128 1026.25 403.307 1026.23 403.512C1026.23 403.717 1026.21 403.909 1026.19 404.088H1008.88V401.439H1024.27L1022.77 402.361C1022.8 401.056 1022.53 399.891 1021.97 398.868C1021.4 397.844 1020.62 397.051 1019.62 396.488C1018.65 395.899 1017.51 395.605 1016.21 395.605C1014.93 395.605 1013.79 395.899 1012.79 396.488C1011.79 397.051 1011.01 397.857 1010.45 398.906C1009.89 399.93 1009.61 401.107 1009.61 402.437V403.051C1009.61 404.408 1009.91 405.623 1010.53 406.698C1011.17 407.747 1012.05 408.566 1013.18 409.154C1014.3 409.743 1015.59 410.037 1017.05 410.037C1018.26 410.037 1019.34 409.833 1020.32 409.423C1021.31 409.014 1022.18 408.4 1022.93 407.581L1024.96 409.961C1024.04 411.035 1022.89 411.854 1021.51 412.417C1020.15 412.98 1018.63 413.262 1016.94 413.262ZM1039.79 413.262C1037.82 413.262 1036.05 412.827 1034.49 411.957C1032.96 411.086 1031.74 409.871 1030.84 408.31C1029.95 406.749 1029.5 404.932 1029.5 402.86C1029.5 400.787 1029.95 398.983 1030.84 397.447C1031.74 395.886 1032.96 394.671 1034.49 393.801C1036.05 392.931 1037.82 392.496 1039.79 392.496C1041.5 392.496 1043.05 392.88 1044.43 393.647C1045.81 394.415 1046.91 395.567 1047.73 397.102C1048.58 398.637 1049 400.557 1049 402.86C1049 405.163 1048.59 407.082 1047.77 408.617C1046.98 410.152 1045.89 411.317 1044.51 412.11C1043.13 412.878 1041.55 413.262 1039.79 413.262ZM1040.09 410.037C1041.37 410.037 1042.53 409.743 1043.55 409.154C1044.6 408.566 1045.42 407.734 1046.01 406.66C1046.62 405.559 1046.93 404.293 1046.93 402.86C1046.93 401.401 1046.62 400.147 1046.01 399.098C1045.42 398.023 1044.6 397.192 1043.55 396.603C1042.53 396.014 1041.37 395.72 1040.09 395.72C1038.79 395.72 1037.63 396.014 1036.6 396.603C1035.58 397.192 1034.76 398.023 1034.15 399.098C1033.53 400.147 1033.22 401.401 1033.22 402.86C1033.22 404.293 1033.53 405.559 1034.15 406.66C1034.76 407.734 1035.58 408.566 1036.6 409.154C1037.63 409.743 1038.79 410.037 1040.09 410.037ZM1047.04 413.031V407.542L1047.27 402.821L1046.89 398.1V384.55H1050.57V413.031H1047.04ZM1057.55 413.031V392.688H1061.23V413.031H1057.55ZM1059.39 388.773C1058.67 388.773 1058.07 388.542 1057.58 388.082C1057.12 387.621 1056.89 387.058 1056.89 386.393C1056.89 385.702 1057.12 385.126 1057.58 384.666C1058.07 384.205 1058.67 383.975 1059.39 383.975C1060.1 383.975 1060.69 384.205 1061.15 384.666C1061.64 385.101 1061.88 385.651 1061.88 386.316C1061.88 387.007 1061.65 387.596 1061.19 388.082C1060.73 388.542 1060.13 388.773 1059.39 388.773ZM1076.83 413.262C1075.09 413.262 1073.55 412.942 1072.22 412.302C1070.91 411.662 1069.89 410.69 1069.15 409.385C1068.43 408.054 1068.07 406.391 1068.07 404.395V392.688H1071.76V403.973C1071.76 405.969 1072.23 407.466 1073.18 408.464C1074.15 409.462 1075.51 409.961 1077.25 409.961C1078.53 409.961 1079.64 409.705 1080.59 409.193C1081.53 408.655 1082.26 407.888 1082.78 406.89C1083.29 405.866 1083.54 404.638 1083.54 403.205V392.688H1087.23V413.031H1083.73V407.542L1084.31 409.001C1083.65 410.357 1082.65 411.406 1081.32 412.148C1079.99 412.891 1078.49 413.262 1076.83 413.262ZM1119.69 392.496C1121.33 392.496 1122.77 392.816 1124.03 393.456C1125.28 394.095 1126.25 395.068 1126.95 396.373C1127.66 397.678 1128.02 399.328 1128.02 401.324V413.031H1124.34V401.746C1124.34 399.776 1123.87 398.292 1122.95 397.294C1122.03 396.296 1120.74 395.797 1119.08 395.797C1117.85 395.797 1116.77 396.053 1115.85 396.565C1114.93 397.076 1114.21 397.831 1113.7 398.829C1113.22 399.827 1112.97 401.068 1112.97 402.552V413.031H1109.29V401.746C1109.29 399.776 1108.83 398.292 1107.91 397.294C1107.01 396.296 1105.72 395.797 1104.03 395.797C1102.83 395.797 1101.77 396.053 1100.84 396.565C1099.92 397.076 1099.21 397.831 1098.7 398.829C1098.18 399.827 1097.93 401.068 1097.93 402.552V413.031H1094.24V392.688H1097.77V398.1L1097.2 396.718C1097.84 395.387 1098.82 394.351 1100.15 393.609C1101.48 392.867 1103.03 392.496 1104.8 392.496C1106.74 392.496 1108.42 392.982 1109.83 393.954C1111.23 394.901 1112.16 396.347 1112.59 398.292L1111.09 397.678C1111.71 396.117 1112.78 394.863 1114.32 393.916C1115.85 392.969 1117.64 392.496 1119.69 392.496Z" fill="#2E2E2E"/>
<path d="M979.587 464.005C977.54 464.005 975.582 463.698 973.714 463.084C971.846 462.444 970.375 461.625 969.3 460.627L970.72 457.633C971.744 458.529 973.049 459.271 974.636 459.86C976.222 460.448 977.873 460.742 979.587 460.742C981.148 460.742 982.415 460.563 983.387 460.205C984.36 459.847 985.076 459.361 985.537 458.746C985.997 458.107 986.228 457.39 986.228 456.597C986.228 455.676 985.92 454.934 985.306 454.371C984.718 453.808 983.937 453.36 982.965 453.027C982.018 452.669 980.969 452.362 979.817 452.106C978.666 451.85 977.502 451.556 976.325 451.223C975.173 450.865 974.111 450.417 973.139 449.88C972.192 449.342 971.424 448.626 970.836 447.73C970.247 446.809 969.953 445.632 969.953 444.199C969.953 442.817 970.311 441.551 971.028 440.399C971.77 439.222 972.896 438.288 974.405 437.597C975.941 436.881 977.885 436.522 980.24 436.522C981.801 436.522 983.349 436.727 984.884 437.136C986.419 437.546 987.75 438.134 988.876 438.902L987.609 441.973C986.458 441.205 985.242 440.655 983.963 440.322C982.683 439.964 981.442 439.785 980.24 439.785C978.73 439.785 977.489 439.977 976.516 440.361C975.544 440.744 974.828 441.256 974.367 441.896C973.932 442.536 973.714 443.252 973.714 444.045C973.714 444.992 974.009 445.747 974.597 446.31C975.211 446.873 975.992 447.321 976.939 447.654C977.911 447.986 978.973 448.293 980.125 448.575C981.276 448.831 982.428 449.125 983.579 449.458C984.756 449.79 985.818 450.225 986.765 450.763C987.737 451.3 988.518 452.017 989.106 452.912C989.695 453.808 989.989 454.959 989.989 456.367C989.989 457.723 989.618 458.99 988.876 460.167C988.134 461.318 986.982 462.252 985.421 462.969C983.886 463.66 981.941 464.005 979.587 464.005ZM1004.12 463.928C1001.94 463.928 1000.02 463.48 998.36 462.585C996.723 461.689 995.443 460.461 994.522 458.9C993.626 457.339 993.179 455.548 993.179 453.526C993.179 451.505 993.614 449.713 994.484 448.153C995.379 446.592 996.595 445.376 998.13 444.506C999.691 443.61 1001.44 443.163 1003.39 443.163C1005.36 443.163 1007.1 443.598 1008.61 444.468C1010.12 445.338 1011.3 446.566 1012.14 448.153C1013.01 449.713 1013.45 451.543 1013.45 453.641C1013.45 453.795 1013.43 453.974 1013.41 454.179C1013.41 454.384 1013.39 454.575 1013.37 454.755H996.057V452.106H1011.45L1009.95 453.027C1009.98 451.722 1009.71 450.558 1009.15 449.534C1008.58 448.511 1007.8 447.718 1006.8 447.155C1005.83 446.566 1004.69 446.272 1003.39 446.272C1002.11 446.272 1000.97 446.566 999.973 447.155C998.975 447.718 998.194 448.524 997.631 449.573C997.068 450.596 996.787 451.773 996.787 453.104V453.718C996.787 455.074 997.094 456.29 997.708 457.365C998.348 458.414 999.23 459.233 1000.36 459.821C1001.48 460.41 1002.77 460.704 1004.23 460.704C1005.44 460.704 1006.52 460.499 1007.5 460.09C1008.49 459.68 1009.36 459.066 1010.11 458.247L1012.14 460.627C1011.22 461.702 1010.07 462.521 1008.69 463.084C1007.33 463.647 1005.81 463.928 1004.12 463.928ZM1044.01 443.163C1045.65 443.163 1047.09 443.483 1048.35 444.122C1049.6 444.762 1050.57 445.734 1051.27 447.039C1051.98 448.344 1052.34 449.995 1052.34 451.991V463.698H1048.65V452.413C1048.65 450.443 1048.19 448.959 1047.27 447.961C1046.35 446.963 1045.06 446.464 1043.4 446.464C1042.17 446.464 1041.09 446.72 1040.17 447.231C1039.25 447.743 1038.53 448.498 1038.02 449.496C1037.54 450.494 1037.29 451.735 1037.29 453.219V463.698H1033.61V452.413C1033.61 450.443 1033.15 448.959 1032.23 447.961C1031.33 446.963 1030.04 446.464 1028.35 446.464C1027.15 446.464 1026.09 446.72 1025.16 447.231C1024.24 447.743 1023.53 448.498 1023.01 449.496C1022.5 450.494 1022.25 451.735 1022.25 453.219V463.698H1018.56V443.355H1022.09V448.767L1021.52 447.385C1022.16 446.054 1023.14 445.018 1024.47 444.276C1025.8 443.534 1027.35 443.163 1029.12 443.163C1031.06 443.163 1032.74 443.649 1034.15 444.621C1035.55 445.568 1036.47 447.014 1036.91 448.959L1035.41 448.344C1036.03 446.784 1037.1 445.53 1038.64 444.583C1040.17 443.636 1041.96 443.163 1044.01 443.163ZM1059.12 463.698V443.355H1062.8V463.698H1059.12ZM1060.96 439.439C1060.25 439.439 1059.64 439.209 1059.16 438.749C1058.7 438.288 1058.47 437.725 1058.47 437.06C1058.47 436.369 1058.7 435.793 1059.16 435.332C1059.64 434.872 1060.25 434.641 1060.96 434.641C1061.68 434.641 1062.27 434.872 1062.73 435.332C1063.21 435.767 1063.46 436.318 1063.46 436.983C1063.46 437.674 1063.23 438.262 1062.77 438.749C1062.31 439.209 1061.7 439.439 1060.96 439.439ZM1080.63 463.928C1078.89 463.928 1077.31 463.544 1075.91 462.777C1074.52 461.984 1073.42 460.819 1072.6 459.284C1071.81 457.749 1071.41 455.829 1071.41 453.526C1071.41 451.223 1071.82 449.304 1072.64 447.769C1073.49 446.233 1074.6 445.082 1075.98 444.314C1077.39 443.546 1078.94 443.163 1080.63 443.163C1082.62 443.163 1084.39 443.598 1085.92 444.468C1087.46 445.338 1088.67 446.553 1089.57 448.114C1090.47 449.65 1090.91 451.454 1090.91 453.526C1090.91 455.599 1090.47 457.416 1089.57 458.977C1088.67 460.538 1087.46 461.753 1085.92 462.623C1084.39 463.493 1082.62 463.928 1080.63 463.928ZM1069.84 463.698V435.217H1073.53V448.767L1073.14 453.488L1073.37 458.209V463.698H1069.84ZM1080.32 460.704C1081.62 460.704 1082.79 460.41 1083.81 459.821C1084.86 459.233 1085.68 458.401 1086.27 457.326C1086.88 456.226 1087.19 454.959 1087.19 453.526C1087.19 452.068 1086.88 450.814 1086.27 449.765C1085.68 448.69 1084.86 447.858 1083.81 447.27C1082.79 446.681 1081.62 446.387 1080.32 446.387C1079.04 446.387 1077.88 446.681 1076.83 447.27C1075.8 447.858 1074.98 448.69 1074.37 449.765C1073.78 450.814 1073.49 452.068 1073.49 453.526C1073.49 454.959 1073.78 456.226 1074.37 457.326C1074.98 458.401 1075.8 459.233 1076.83 459.821C1077.88 460.41 1079.04 460.704 1080.32 460.704ZM1104.72 463.928C1102.67 463.928 1100.85 463.48 1099.27 462.585C1097.68 461.689 1096.43 460.461 1095.51 458.9C1094.58 457.313 1094.12 455.522 1094.12 453.526C1094.12 451.505 1094.58 449.713 1095.51 448.153C1096.43 446.592 1097.68 445.376 1099.27 444.506C1100.85 443.61 1102.67 443.163 1104.72 443.163C1106.74 443.163 1108.54 443.61 1110.13 444.506C1111.74 445.376 1113 446.592 1113.89 448.153C1114.81 449.688 1115.27 451.479 1115.27 453.526C1115.27 455.548 1114.81 457.339 1113.89 458.9C1113 460.461 1111.74 461.689 1110.13 462.585C1108.54 463.48 1106.74 463.928 1104.72 463.928ZM1104.72 460.704C1106.02 460.704 1107.19 460.41 1108.21 459.821C1109.26 459.233 1110.08 458.401 1110.67 457.326C1111.26 456.226 1111.55 454.959 1111.55 453.526C1111.55 452.068 1111.26 450.814 1110.67 449.765C1110.08 448.69 1109.26 447.858 1108.21 447.27C1107.19 446.681 1106.02 446.387 1104.72 446.387C1103.41 446.387 1102.25 446.681 1101.22 447.27C1100.2 447.858 1099.38 448.69 1098.77 449.765C1098.15 450.814 1097.85 452.068 1097.85 453.526C1097.85 454.959 1098.15 456.226 1098.77 457.326C1099.38 458.401 1100.2 459.233 1101.22 459.821C1102.25 460.41 1103.41 460.704 1104.72 460.704ZM1120.37 463.698V435.217H1124.05V463.698H1120.37ZM1139.5 463.928C1137.53 463.928 1135.76 463.493 1134.2 462.623C1132.66 461.753 1131.45 460.538 1130.55 458.977C1129.66 457.416 1129.21 455.599 1129.21 453.526C1129.21 451.454 1129.66 449.65 1130.55 448.114C1131.45 446.553 1132.66 445.338 1134.2 444.468C1135.76 443.598 1137.53 443.163 1139.5 443.163C1141.21 443.163 1142.76 443.546 1144.14 444.314C1145.52 445.082 1146.62 446.233 1147.44 447.769C1148.29 449.304 1148.71 451.223 1148.71 453.526C1148.71 455.829 1148.3 457.749 1147.48 459.284C1146.69 460.819 1145.6 461.984 1144.22 462.777C1142.83 463.544 1141.26 463.928 1139.5 463.928ZM1139.8 460.704C1141.08 460.704 1142.23 460.41 1143.26 459.821C1144.31 459.233 1145.13 458.401 1145.71 457.326C1146.33 456.226 1146.63 454.959 1146.63 453.526C1146.63 452.068 1146.33 450.814 1145.71 449.765C1145.13 448.69 1144.31 447.858 1143.26 447.27C1142.23 446.681 1141.08 446.387 1139.8 446.387C1138.5 446.387 1137.33 446.681 1136.31 447.27C1135.29 447.858 1134.47 448.69 1133.85 449.765C1133.24 450.814 1132.93 452.068 1132.93 453.526C1132.93 454.959 1133.24 456.226 1133.85 457.326C1134.47 458.401 1135.29 459.233 1136.31 459.821C1137.33 460.41 1138.5 460.704 1139.8 460.704ZM1146.75 463.698V458.209L1146.98 453.488L1146.6 448.767V435.217H1150.28V463.698H1146.75Z" fill="#2E2E2E"/>
<path d="M971.757 514.365V487.496H983.809C986.906 487.496 989.285 488.123 990.949 489.377C992.612 490.605 993.444 492.294 993.444 494.443C993.444 495.902 993.111 497.13 992.446 498.128C991.806 499.126 990.936 499.894 989.836 500.431C988.735 500.969 987.545 501.237 986.266 501.237L986.957 500.086C988.492 500.086 989.848 500.354 991.026 500.892C992.203 501.429 993.137 502.222 993.828 503.272C994.518 504.295 994.864 505.575 994.864 507.11C994.864 509.413 993.994 511.204 992.254 512.484C990.539 513.738 987.98 514.365 984.577 514.365H971.757ZM975.595 511.255H984.424C986.547 511.255 988.172 510.897 989.298 510.181C990.424 509.464 990.987 508.338 990.987 506.803C990.987 505.242 990.424 504.103 989.298 503.387C988.172 502.67 986.547 502.312 984.424 502.312H975.25V499.203H983.464C985.409 499.203 986.918 498.845 987.993 498.128C989.068 497.412 989.605 496.337 989.605 494.904C989.605 493.471 989.068 492.396 987.993 491.68C986.918 490.963 985.409 490.605 983.464 490.605H975.595V511.255ZM1008.98 514.595C1006.94 514.595 1005.12 514.147 1003.53 513.251C1001.95 512.356 1000.69 511.127 999.771 509.567C998.85 507.98 998.389 506.189 998.389 504.193C998.389 502.171 998.85 500.38 999.771 498.819C1000.69 497.258 1001.95 496.043 1003.53 495.173C1005.12 494.277 1006.94 493.829 1008.98 493.829C1011 493.829 1012.81 494.277 1014.39 495.173C1016.01 496.043 1017.26 497.258 1018.16 498.819C1019.08 500.354 1019.54 502.146 1019.54 504.193C1019.54 506.214 1019.08 508.006 1018.16 509.567C1017.26 511.127 1016.01 512.356 1014.39 513.251C1012.81 514.147 1011 514.595 1008.98 514.595ZM1008.98 511.371C1010.29 511.371 1011.45 511.076 1012.48 510.488C1013.52 509.899 1014.34 509.068 1014.93 507.993C1015.52 506.892 1015.82 505.626 1015.82 504.193C1015.82 502.734 1015.52 501.48 1014.93 500.431C1014.34 499.356 1013.52 498.525 1012.48 497.936C1011.45 497.348 1010.29 497.053 1008.98 497.053C1007.68 497.053 1006.51 497.348 1005.49 497.936C1004.47 498.525 1003.65 499.356 1003.03 500.431C1002.42 501.48 1002.11 502.734 1002.11 504.193C1002.11 505.626 1002.42 506.892 1003.03 507.993C1003.65 509.068 1004.47 509.899 1005.49 510.488C1006.51 511.076 1007.68 511.371 1008.98 511.371ZM1024.63 514.365V485.884H1028.32V514.365H1024.63ZM1043.76 514.595C1041.79 514.595 1040.02 514.16 1038.46 513.29C1036.93 512.42 1035.71 511.204 1034.82 509.643C1033.92 508.082 1033.47 506.266 1033.47 504.193C1033.47 502.12 1033.92 500.316 1034.82 498.781C1035.71 497.22 1036.93 496.004 1038.46 495.134C1040.02 494.264 1041.79 493.829 1043.76 493.829C1045.48 493.829 1047.02 494.213 1048.41 494.981C1049.79 495.748 1050.89 496.9 1051.71 498.435C1052.55 499.971 1052.97 501.89 1052.97 504.193C1052.97 506.496 1052.56 508.415 1051.74 509.95C1050.95 511.486 1049.86 512.65 1048.48 513.443C1047.1 514.211 1045.53 514.595 1043.76 514.595ZM1044.07 511.371C1045.35 511.371 1046.5 511.076 1047.52 510.488C1048.57 509.899 1049.39 509.068 1049.98 507.993C1050.59 506.892 1050.9 505.626 1050.9 504.193C1050.9 502.734 1050.59 501.48 1049.98 500.431C1049.39 499.356 1048.57 498.525 1047.52 497.936C1046.5 497.348 1045.35 497.053 1044.07 497.053C1042.76 497.053 1041.6 497.348 1040.58 497.936C1039.55 498.525 1038.73 499.356 1038.12 500.431C1037.5 501.48 1037.2 502.734 1037.2 504.193C1037.2 505.626 1037.5 506.892 1038.12 507.993C1038.73 509.068 1039.55 509.899 1040.58 510.488C1041.6 511.076 1042.76 511.371 1044.07 511.371ZM1051.02 514.365V508.876L1051.25 504.154L1050.86 499.433V485.884H1054.55V514.365H1051.02Z" fill="#2E2E2E"/>
</svg>
